<?xml version="1.0" standalone="yes"?>
<svg xmlns="http://www.w3.org/2000/svg" width="512" height="512">
<path style="fill:#e2cab8; stroke:none;" d="M0 0L0 512L29 512C32.1769 512 37.7188 513.024 40.4113 510.972C45.607 507.013 46.2153 490.198 48.0355 484C54.1228 463.271 60.4559 432.398 75.108 416C92.0599 397.028 112.954 390.544 136 381.399C154.865 373.913 173.106 365.278 192 358C188.476 361.727 185.587 363.462 186 369L187 369L190 367L191 367C193.475 362.616 198.533 362.14 200.387 356.995C208.393 334.784 204.315 313.559 192.319 294.144C189.547 289.656 184.754 288.247 182.515 283C178.933 274.606 175.658 249.216 184 244C179.864 230.745 181 215.786 181 202C172.423 200.305 171.195 193.289 169 186L174 185L172 182L175 181L175 180L168 180L167 179L169 169L171 171L172 171C170.34 156.149 195.25 138.431 209 138C214.005 132.647 219.433 136.152 225 139L224 136L226 137L226 136L225 133C232.17 134.111 239.812 128.734 248 128.978C254.286 129.166 259.074 133.604 265 134.527C268.199 135.025 270.873 132.616 274 133.141C277.61 133.748 280.584 136.929 284 138.186C294.726 142.134 301.422 142.621 310.424 150.725C312.687 152.762 317.286 153.512 318.636 156.303C322.209 163.695 308.157 176.284 308.472 185C308.801 194.082 312.548 203.577 312.961 213C313.266 219.968 311.204 231.258 313.693 237.698C314.743 240.414 318.652 241.064 320.486 243.228C324.059 247.441 324.107 254.774 323.985 260C323.74 270.542 317.776 288.063 305 286C303.385 292.815 299.528 299.108 298.329 306C295.336 323.196 298.128 344.262 307 359C311.878 360.219 316.932 363.361 319 368L320 368C318.596 361.105 311.971 357.824 306 355L306 354C313.812 354.087 318.193 358.335 325 361.377C335.351 366.003 345.765 369.281 356 374.398C384.273 388.533 414.24 396.624 432.049 425C439.599 437.031 441.094 450.996 446 464C455.964 462.861 466.817 461.119 476.667 463.667C479.528 464.407 487.765 467.247 485 471L488 472L492 466C492 460.377 498.213 471.167 498.833 473C500.416 477.677 502.333 482.578 502.333 487.667C502.333 490.849 500.315 497.33 502.167 500C504.105 502.795 508.879 503.918 512 504L512 0L0 0z"/>
<path style="fill:#d09c8a; stroke:none;" d="M247.667 128.333L248.333 128.667L247.667 128.333M227 133L227 134L234 133L233 130L236 130L235 133L244 135L245 130L227 133z"/>
<path style="fill:#ae7562; stroke:none;" d="M243 131L247 133L248 133L249 130L249 134L253 132L252 137L256 138L255 135L256 135L260 140L258 135L271 136L269 139L274 141L273 139L274 139L281 143L281 141L284 146L285 146L285 142L286 142L287 144L287 142L288 142L289 144L290 143L283 141L283 140L290 140C285.407 137.997 278.865 133.834 274.015 133.093C268.391 132.233 263.884 134.759 257.325 133.089C251.787 131.678 248.868 126.997 243 131z"/>
<path style="fill:#d09c8a; stroke:none;" d="M251 129L252 130L251 129z"/>
<path style="fill:#ae7562; stroke:none;" d="M233 130L234 133L229 136L232 137L233 140L230 140L230 141L234 144C237.501 140.226 240.285 140.412 245 142L244 140L245 140L249 140L244 135L245 138L242 136L241 136L234 140L235 137L235 136L232 135L235 135L236 130L233 130z"/>
<path style="fill:#554246; stroke:none;" d="M248 130L249 131L248 130z"/>
<path style="fill:#d09c8a; stroke:none;" d="M253 130L262 134L253 130z"/>
<path style="fill:#ae7562; stroke:none;" d="M236 132L243 135L236 132z"/>
<path style="fill:#d09c8a; stroke:none;" d="M246 131L247 132L246 131M248.667 131.333L249.333 131.667L248.667 131.333z"/>
<path style="fill:#554246; stroke:none;" d="M245 132L244 134L244 135L251 139L251 140L244 140L245 142C240.441 139.63 237.018 139.561 234 144L232 141L231 145L230 145C229.455 141.732 229.297 140.324 232 141L232 137L226 134L228 141L220 150L219 150L219 145L218 145L216 146L218 149L209 147L209 150L203 152L206 145L209 145L209 144L204 145L204 140L203 140L203 144L196 149L196 145L188 147L183 155L181 157L180 157L180 163L178 161L175 163C175.545 166.268 175.703 167.676 173 167L169 178L177 180L175 182L178 183L175 187L175 188L182 189L179 188L179 189L182 190L182 198L179 198L179 199L182 199C182 206.3 178.632 225.501 185 230L188 226L187 239L188 239C188.369 221.12 196.376 185.056 219 186L225 181C231.588 184.932 240.215 180.837 247 179.478C255.87 177.702 269.816 178.948 278.089 182.688C288.137 187.231 289.49 198.002 292.955 207C296.146 215.285 301.321 225.465 306 233L303 232L307 235L309 237L307 242L308 242L311 241C316.534 229.5 311.374 214.036 310.171 202C309.628 196.574 311.007 190.562 306 187L318 158L311 157C310.058 150.426 306.36 145.896 300 144L302 148C295.193 143.112 291.657 140.006 283 140L283 141L290 143L289 144L288 142L287 142L287 144L286 142L285 142L285 146L284 146L281 141L281 143L273 139L274 141L273 141L258 135L260 140L256 135L255 135L256 138L252 137L253 132L245 132z"/>
<path style="fill:#e2cab8; stroke:none;" d="M248 132L249 133L248 132z"/>
<path style="fill:#d09c8a; stroke:none;" d="M271 132L272 133L271 132M274 132L275 133L274 132M225.333 133.667L225.667 134.333L225.333 133.667z"/>
<path style="fill:#ae7562; stroke:none;" d="M226 133L227 134L226 133z"/>
<path style="fill:#554246; stroke:none;" d="M235 133L233 134L235 136L234 139C237.298 138.887 240.282 139.646 241 136L242 136L245 138L237 133L235 133z"/>
<path style="fill:#ae7562; stroke:none;" d="M244 133L245 134L244 133z"/>
<path style="fill:#d09c8a; stroke:none;" d="M248 133L249 134L248 133M270 133L271 134L270 133M275 133L276 134L275 133M213 134L213 135L216 135L213 134z"/>
<path style="fill:#ae7562; stroke:none;" d="M227 134L228 135L227 134z"/>
<path style="fill:#d09c8a; stroke:none;" d="M263 134L264 135L263 134z"/>
<path style="fill:#554246; stroke:none;" d="M271 134L272 137L273 137L271 134z"/>
<path style="fill:#d09c8a; stroke:none;" d="M273 134L274 135L273 134M277 134L278 135L277 134M210 135L209 139L210 139L212 136L210 135z"/>
<path style="fill:#ae7562; stroke:none;" d="M210 138L213 137L212 141L217 144L212 143L211 146L206 145L203 152L209 150L207 147L218 149L216 146L218 147L217 144L218 144L219 150L220 150L225 142L221 144L220 144L215 137C220.073 138.691 222.568 143.432 227 139L227 141L228 141C227.248 137.546 225.037 138.154 222 139L222 137L220 138C217.392 134.31 212.608 134.31 210 138z"/>
<path style="fill:#d09c8a; stroke:none;" d="M232 135L233 136L232 135M264 135L264 136L269 136L264 135z"/>
<path style="fill:#554246; stroke:none;" d="M275.333 135.667L275.667 136.333L275.333 135.667M213 136L214 137L213 136z"/>
<path style="fill:#d09c8a; stroke:none;" d="M220 136L221 137L220 136M224 136L227 138L224 136z"/>
<path style="fill:#ae7562; stroke:none;" d="M226 136L227 137L226 136z"/>
<path style="fill:#201523; stroke:none;" d="M243 136L244 137L243 136z"/>
<path style="fill:#e2cab8; stroke:none;" d="M269 136L270 137L269 136z"/>
<path style="fill:#d09c8a; stroke:none;" d="M270 136L271 137L270 136M204 139L207 138L204 139z"/>
<path style="fill:#554246; stroke:none;" d="M211.667 137.333L212.333 137.667L211.667 137.333z"/>
<path style="fill:#e2cab8; stroke:none;" d="M215 137L218 139L218 138L215 137z"/>
<path style="fill:#d09c8a; stroke:none;" d="M216 137L217 138L216 137z"/>
<path style="fill:#554246; stroke:none;" d="M220 137L221 138L220 137z"/>
<path style="fill:#d09c8a; stroke:none;" d="M222 137L223 138L222 137M233 137L234 138L233 137M268.667 137.333L269.333 137.667L268.667 137.333z"/>
<path style="fill:#554246; stroke:none;" d="M277 137L279 140L277 137z"/>
<path style="fill:#d09c8a; stroke:none;" d="M279 137L280 138L279 137M282 137L283 138L282 137z"/>
<path style="fill:#ae7562; stroke:none;" d="M187 148L196 145L196 149L203 144L203 140L204 140L204 145L210 144L206 141L209 139C204.211 137.344 190.481 144.328 187 148z"/>
<path style="fill:#e2cab8; stroke:none;" d="M210 138L210 139L213 140L210 138z"/>
<path style="fill:#554246; stroke:none;" d="M213.667 138.333L214.333 138.667L213.667 138.333z"/>
<path style="fill:#d09c8a; stroke:none;" d="M217 139L221 142L217 139z"/>
<path style="fill:#554246; stroke:none;" d="M222 138L223 139L222 138M272 138L273 139L272 138z"/>
<path style="fill:#d09c8a; stroke:none;" d="M275 138L276 139L275 138z"/>
<path style="fill:#e2cab8; stroke:none;" d="M279.667 138.333L280.333 138.667L279.667 138.333z"/>
<path style="fill:#d09c8a; stroke:none;" d="M283 138L284 139L283 138M201.667 139.333L202.333 139.667L201.667 139.333z"/>
<path style="fill:#554246; stroke:none;" d="M206 141L216 145C213.881 140.868 210.323 138.229 206 141z"/>
<path style="fill:#d09c8a; stroke:none;" d="M211 139L212 140L211 139z"/>
<path style="fill:#554246; stroke:none;" d="M223 139L224 140L223 139z"/>
<path style="fill:#d09c8a; stroke:none;" d="M226.333 139.667L226.667 140.333L226.333 139.667M232 139L233 140L232 139M234 139L235 140L234 139z"/>
<path style="fill:#201523; stroke:none;" d="M249.667 139.333L250.333 139.667L249.667 139.333z"/>
<path style="fill:#d09c8a; stroke:none;" d="M279.667 139.333L280.333 139.667L279.667 139.333M290 139L291 140L290 139M200 140L201 141L200 140M213 140L214 141L213 140z"/>
<path style="fill:#201523; stroke:none;" d="M257.667 140.333L258.333 140.667L257.667 140.333z"/>
<path style="fill:#ae7562; stroke:none;" d="M292 140L292 141L302 148L301 143L292 140z"/>
<path style="fill:#d09c8a; stroke:none;" d="M294.667 140.333L295.333 140.667L294.667 140.333z"/>
<path style="fill:#e2cab8; stroke:none;" d="M221 141L222 142L221 141z"/>
<path style="fill:#d09c8a; stroke:none;" d="M222 141L223 143L224 143L225 141L222 141M230.333 141.667L230.667 142.333L230.333 141.667z"/>
<path style="fill:#201523; stroke:none;" d="M253 141L254 142L253 141z"/>
<path style="fill:#d09c8a; stroke:none;" d="M297.667 141.333L298.333 141.667L297.667 141.333M197.667 142.333L198.333 142.667L197.667 142.333M206 142L207 143L206 142z"/>
<path style="fill:#e2cab8; stroke:none;" d="M220 142L221 143L220 142z"/>
<path style="fill:#ae7562; stroke:none;" d="M226 142L225 144L226 142M229 142L230 143L229 142z"/>
<path style="fill:#d09c8a; stroke:none;" d="M299.667 142.333L300.333 142.667L299.667 142.333M196 143L197 144L196 143M210 143L211 146L210 143M216 143L217 144L216 143M220 143L221 144L220 143z"/>
<path style="fill:#ae7562; stroke:none;" d="M230.333 143.667L230.667 144.333L230.333 143.667z"/>
<path style="fill:#d09c8a; stroke:none;" d="M301 143L302 144L301 143M189 144L189 145L195 145L189 144M212 144L215 147L212 144M217.333 144.667L217.667 145.333L217.333 144.667z"/>
<path style="fill:#201523; stroke:none;" d="M265 144C265.316 153.757 253.498 147.9 249 153L248 153L227 149L230 154L228 155L227 155L222 150L222 153L225 153L216 152L219 155L210 156L211 159L206 156L208 160L203 157L206 162L203 161L203 163L200 162L201 165L195 165L195 166L197 169L196 169L194 167L193 172L189 171L187 169L185 160L184 160L185 165L182 170L177 171L179 179L183 179L179 180L179 181L186 182L183 188L183 189L185 186L194 190L193 195L194 195L194 192L196 194L212 185C213.307 182.385 218.022 180.331 221 180C232.987 178.668 253.498 171.888 265 177C272.13 180.169 276.751 180.001 283 185C283.832 185.666 284.579 183.527 285 183L288 187L289 184L292 185L293 182L294 182L293 185L295 185L294 188L295 188L296 185L298 186L299 183L300 183L300 186C306.354 181.008 305.478 176.228 306 169L303 170L304 168L301 169L298 164L303 162L303 161L295 162L298 158L295 157L295 156L297 155L296 153L289 157L281 155L281 156L283 157C280.265 158.266 278.333 160.442 276 158L281 153L280 152L276 154L276 149L279 151L281 147L265 144z"/>
<path style="fill:#ae7562; stroke:none;" d="M302 144L303 145L302 144z"/>
<path style="fill:#d09c8a; stroke:none;" d="M303 144L304 145L303 144M188 145L189 146L188 145z"/>
<path style="fill:#ae7562; stroke:none;" d="M199 148L203 146L199 148z"/>
<path style="fill:#e2cab8; stroke:none;" d="M209 145L210 146L209 145z"/>
<path style="fill:#ae7562; stroke:none;" d="M225 145L226 146L225 145z"/>
<path style="fill:#201523; stroke:none;" d="M255 145L256 146L255 145M260 145L261 146L260 145M262 145L265 148L262 145z"/>
<path style="fill:#ae7562; stroke:none;" d="M304.667 145.333L305.333 145.667L304.667 145.333z"/>
<path style="fill:#d09c8a; stroke:none;" d="M187 146L188 147L187 146M208 146L207 148L209 148L208 146z"/>
<path style="fill:#201523; stroke:none;" d="M227 146L228 147L227 146z"/>
<path style="fill:#ae7562; stroke:none;" d="M306 146L307 147L306 146z"/>
<path style="fill:#d09c8a; stroke:none;" d="M186 147L183 151L187 151L186 147z"/>
<path style="fill:#201523; stroke:none;" d="M200 147L201 148L200 147z"/>
<path style="fill:#554246; stroke:none;" d="M267.667 147.333L268.333 147.667L267.667 147.333z"/>
<path style="fill:#ae7562; stroke:none;" d="M303 147L304 148L303 147M307 147L308 148L307 147z"/>
<path style="fill:#d09c8a; stroke:none;" d="M206 148L207 149L206 148z"/>
<path style="fill:#201523; stroke:none;" d="M287 150L290 149L287 150z"/>
<path style="fill:#ae7562; stroke:none;" d="M308 148L311 157L318 158L317 163L318 163L319 156L308 148M185 149L176 163L177 163L180 163L180 157L181 157L182 159L183 155C186.357 154.554 186.708 151.65 185 149z"/>
<path style="fill:#201523; stroke:none;" d="M199 149L200 150L199 149z"/>
<path style="fill:#d09c8a; stroke:none;" d="M309 149L310 150L309 149z"/>
<path style="fill:#ae7562; stroke:none;" d="M187 150L188 151L187 150M199 151L202 153L202 152L199 151z"/>
<path style="fill:#554246; stroke:none;" d="M257 151L258 152L257 151z"/>
<path style="fill:#d09c8a; stroke:none;" d="M310 151L311 152L310 151z"/>
<path style="fill:#201523; stroke:none;" d="M214 152L215 153L214 152z"/>
<path style="fill:#554246; stroke:none;" d="M251 152L252 153L251 152z"/>
<path style="fill:#d09c8a; stroke:none;" d="M311 152L312 153L311 152M181 153L182 154L181 153M313.667 153.333L314.333 153.667L313.667 153.333M179 154L180 155L179 154z"/>
<path style="fill:#201523; stroke:none;" d="M194 154L195 155L194 154z"/>
<path style="fill:#554246; stroke:none;" d="M225 154L226 157L225 154z"/>
<path style="fill:#d09c8a; stroke:none;" d="M315 154L315 155L319 156L315 154z"/>
<path style="fill:#201523; stroke:none;" d="M214 155L215 156L214 155z"/>
<path style="fill:#554246; stroke:none;" d="M231.667 155.333L232.333 155.667L231.667 155.333M248 155L249 156L248 155M277 155L278 156L277 155z"/>
<path style="fill:#201523; stroke:none;" d="M192 160L195 162L196 162L199 160L197 156L192 160z"/>
<path style="fill:#ae7562; stroke:none;" d="M201 156L202 157L201 156z"/>
<path style="fill:#554246; stroke:none;" d="M219 156L220 157L219 156M245.667 156.333L246.333 156.667L245.667 156.333z"/>
<path style="fill:#201523; stroke:none;" d="M306 156L306 160L307 160L306 156z"/>
<path style="fill:#d09c8a; stroke:none;" d="M319 156L319 159L320 159L319 156z"/>
<path style="fill:#201523; stroke:none;" d="M186 157L187 158L186 157z"/>
<path style="fill:#554246; stroke:none;" d="M292 159L295 157L292 159z"/>
<path style="fill:#201523; stroke:none;" d="M299 157L300 158L299 157z"/>
<path style="fill:#d09c8a; stroke:none;" d="M177 158L177 160L179 158L177 158z"/>
<path style="fill:#554246; stroke:none;" d="M241 158L242 159L241 158z"/>
<path style="fill:#201523; stroke:none;" d="M303 158L304 159L303 158M187 159L187 162L188 162L187 159z"/>
<path style="fill:#554246; stroke:none;" d="M229 160L229 161L233 160L229 160z"/>
<path style="fill:#d09c8a; stroke:none;" d="M176 160L177 161L176 160z"/>
<path style="fill:#554246; stroke:none;" d="M226.667 160.333L227.333 160.667L226.667 160.333z"/>
<path style="fill:#d09c8a; stroke:none;" d="M171 164L176 162L171 164z"/>
<path style="fill:#201523; stroke:none;" d="M191 161L189 165L193 166L191 161z"/>
<path style="fill:#554246; stroke:none;" d="M216 161L217 162L216 161M233 161L232 163L233 161M276 161L275 163L277 163L276 161z"/>
<path style="fill:#201523; stroke:none;" d="M310 161L309 163L310 161z"/>
<path style="fill:#d09c8a; stroke:none;" d="M318 161L319 162L318 161z"/>
<path style="fill:#ae7562; stroke:none;" d="M173 162L170 174L173 167L176 165L173 162z"/>
<path style="fill:#e2cab8; stroke:none;" d="M175 162L176 163L175 162z"/>
<path style="fill:#ae7562; stroke:none;" d="M188 162L189 163L188 162z"/>
<path style="fill:#554246; stroke:none;" d="M220 169L221 169L231 163C226.136 161.318 222.076 164.78 220 169z"/>
<path style="fill:#ae7562; stroke:none;" d="M177 163L178 164L177 163z"/>
<path style="fill:#201523; stroke:none;" d="M198 163L199 164L198 163z"/>
<path style="fill:#d09c8a; stroke:none;" d="M317 163L318 164L317 163M174 164L175 165L174 164z"/>
<path style="fill:#ae7562; stroke:none;" d="M316 164L317 165L316 164z"/>
<path style="fill:#d09c8a; stroke:none;" d="M316 165L317 166L316 165M171 166L171 169L172 169L171 166z"/>
<path style="fill:#554246; stroke:none;" d="M186 166L187 167L186 166z"/>
<path style="fill:#ae7562; stroke:none;" d="M315 166L316 167L315 166z"/>
<path style="fill:#201523; stroke:none;" d="M308 167L309 168L308 167z"/>
<path style="fill:#d09c8a; stroke:none;" d="M315 167L316 168L315 167z"/>
<path style="fill:#201523; stroke:none;" d="M178 168L179 169L178 168z"/>
<path style="fill:#d09c8a; stroke:none;" d="M314 168L315 169L314 168M169 169L172 172L169 169z"/>
<path style="fill:#554246; stroke:none;" d="M195 169L196 170L195 169z"/>
<path style="fill:#ae7562; stroke:none;" d="M313 169L314 170L313 169z"/>
<path style="fill:#554246; stroke:none;" d="M184 170L185 171L184 170z"/>
<path style="fill:#d09c8a; stroke:none;" d="M313 170L314 171L313 170z"/>
<path style="fill:#554246; stroke:none;" d="M190 171L191 172L190 171z"/>
<path style="fill:#ae7562; stroke:none;" d="M312 171L313 172L312 171z"/>
<path style="fill:#554246; stroke:none;" d="M181 173L183 175L181 173M191 173L191 175L193 175L191 173z"/>
<path style="fill:#d09c8a; stroke:none;" d="M311 173L312 174L311 173z"/>
<path style="fill:#ae7562; stroke:none;" d="M310 174L311 175L310 174M169 175L168 178L169 175z"/>
<path style="fill:#554246; stroke:none;" d="M305 175L306 176L305 175z"/>
<path style="fill:#d09c8a; stroke:none;" d="M310 175L311 176L310 175M168 176L169 177L168 176z"/>
<path style="fill:#554246; stroke:none;" d="M285 176L286 177L285 176z"/>
<path style="fill:#ae7562; stroke:none;" d="M309 176L308 179L309 176z"/>
<path style="fill:#201523; stroke:none;" d="M176 177L176 179L178 179L176 177z"/>
<path style="fill:#d09c8a; stroke:none;" d="M167 178L167 179L173 180L167 178z"/>
<path style="fill:#ae7562; stroke:none;" d="M172 178L174 180L174 178L172 178M225 181L219 186C199.179 184.23 191.593 210.107 190 226L191 226C193.146 216.729 197.868 197.626 207 194L211 199L210 197L211 197L214 198L212 201L213 202L214 200L221 200L221 202L228 200L228 199L224 199L224 198L229 197L229 196L226 196L226 195L229 195L239 193L237 190L238 188C241.737 188 255.431 181.274 254 187L257 185L272 185L275 189L275 185C288.923 187.81 287.782 207.562 298 216C293.942 206.209 290.488 191.235 281.91 184.43C274.014 178.165 255.493 177.577 246 179.478C238.85 180.911 232.325 183.859 225 181z"/>
<path style="fill:#d09c8a; stroke:none;" d="M309 178L310 181L309 178M174 179L176 181L174 179z"/>
<path style="fill:#ae7562; stroke:none;" d="M175 179L176 180L175 179z"/>
<path style="fill:#201523; stroke:none;" d="M237 179L238 180L237 179z"/>
<path style="fill:#d09c8a; stroke:none;" d="M169 180L170 181L169 180z"/>
<path style="fill:#ae7562; stroke:none;" d="M176 180L177 181L176 180z"/>
<path style="fill:#554246; stroke:none;" d="M295 180L296 181L295 180M297 180L298 181L297 180z"/>
<path style="fill:#ae7562; stroke:none;" d="M308.333 180.667L308.667 181.333L308.333 180.667z"/>
<path style="fill:#d09c8a; stroke:none;" d="M172 182L176 184L174 181L172 182z"/>
<path style="fill:#ae7562; stroke:none;" d="M174 181L175 182L174 181z"/>
<path style="fill:#554246; stroke:none;" d="M300 181L302 183L302 181L300 181z"/>
<path style="fill:#d09c8a; stroke:none;" d="M170 182L171 183L170 182z"/>
<path style="fill:#ae7562; stroke:none;" d="M175 182L176 183L175 182z"/>
<path style="fill:#d09c8a; stroke:none;" d="M308 182L309 183L308 182z"/>
<path style="fill:#ae7562; stroke:none;" d="M173 187L171 186L172 196L173 196L176 189L177 187L178 183L173 187z"/>
<path style="fill:#d09c8a; stroke:none;" d="M250.667 183.333L251.333 183.667L250.667 183.333z"/>
<path style="fill:#ae7562; stroke:none;" d="M307.333 183.667L307.667 184.333L307.333 183.667z"/>
<path style="fill:#d09c8a; stroke:none;" d="M172 184L173 185L172 184M244 184L243 186L244 184M238 188L237 190L239 193L226 195L226 196L229 196L229 197L224 198L224 199L228 199L228 200L221 202L221 200L213 202L212 201L214 198L210 197L211 199L207 194C198.759 196.177 190.77 217.687 192 226L193 226L193 223L198 223C198 212.169 222.67 209.878 230 212L246 216.833L256 209.333L282 210.333L294 219L295 225L292 226L292 227L299 227L299 228L295 230L297 237L295 235L294 235L293 243L292 243L292 236C280.071 240.028 271.334 241.255 259 241L259 247L256 245L256 247C251.524 241.734 248.729 237.032 249 230L241 230C239.911 238.609 237.589 245.203 232 252L230 241C221.509 243.505 213.234 243.497 205 240L209 239L209 238L199 239L199 233L196 234L195 225L194 225L195 228L190 235L194 235L194 236L192 236L192 237L195 239L193 238L194 240L188 239L188 240L190 241L188 241L188 242L190 242L188 250L187 250L187 247L186 247L190 275L192 275L194 274L195 274C194.861 265.58 202.066 269.492 207 266L208 266C209.094 267.908 211.018 268.653 211 266L216 267L216 266L214 264L211 265L208 263L205 259L205 258C211.679 260.434 218.372 260.797 225 258L223 256L229 252L228 261C240.47 255.461 248.496 260.857 260.941 259.258C264.248 258.833 264.397 256.711 264 254L268 252L267 255L279 255L279 256L273 257L278 262L279 262L280 288L280 294L281 294L290 270L294 269L294 268L298 269L299 266C310.64 271.617 306.141 241.839 306 236L304 233L302 229L299 229C305.191 219.724 292.063 211.128 288.699 203C286.749 198.288 287.142 193.187 283.606 189.109C281.201 186.336 278.51 185.391 275 185L275 189L272 185L257 185L254 187C253.049 181.289 241.332 187.225 238 188M168 185L169 186L168 185M171 185L172 186L171 185M307.333 185.667L307.667 186.333L307.333 185.667M169 186L171 188L171 186L169 186M172 186L173 187L172 186M240 186L241 187L240 186z"/>
<path style="fill:#ae7562; stroke:none;" d="M248 186L251 188L248 186z"/>
<path style="fill:#201523; stroke:none;" d="M291 186L292 190L293 190L291 186z"/>
<path style="fill:#ae7562; stroke:none;" d="M306 186L307 187L306 186M177 187L176 191L180 190L177 194L180 192L181 193L175 199C177.877 200.579 181.066 203.444 182 199L179 199L179 198L182 198L182 190L177 187z"/>
<path style="fill:#d09c8a; stroke:none;" d="M178.667 187.333L179.333 187.667L178.667 187.333z"/>
<path style="fill:#e2cab8; stroke:none;" d="M180 187L181 188L180 187z"/>
<path style="fill:#ae7562; stroke:none;" d="M181.333 187.667L181.667 188.333L181.333 187.667M265 187L266 188L265 187M268 187L269 188L268 187z"/>
<path style="fill:#201523; stroke:none;" d="M298.333 187.667L298.667 188.333L298.333 187.667M301 187L300 192L301 192L301 187z"/>
<path style="fill:#ae7562; stroke:none;" d="M308 187L309 191L310 191L308 187z"/>
<path style="fill:#d09c8a; stroke:none;" d="M169 188L170 189L169 188z"/>
<path style="fill:#e2cab8; stroke:none;" d="M171 188L172 189L171 188z"/>
<path style="fill:#d09c8a; stroke:none;" d="M172 188L171 190L173 190L172 188M176 188L175 192L176 192L176 188M309 188L310 189L309 188M168 189L169 190L168 189z"/>
<path style="fill:#e2cab8; stroke:none;" d="M174 189L174 197L179 190L175 192L176 189L174 189z"/>
<path style="fill:#ae7562; stroke:none;" d="M243 189L246 193L243 189z"/>
<path style="fill:#d09c8a; stroke:none;" d="M170 190L171 195L172 195L170 190M173 190L173 193L174 193L173 190M177 190L178 191L177 190M179 190L180 191L179 190z"/>
<path style="fill:#201523; stroke:none;" d="M296 190L297 191L296 190z"/>
<path style="fill:#d09c8a; stroke:none;" d="M178 191L179 192L178 191z"/>
<path style="fill:#ae7562; stroke:none;" d="M240.667 191.333L241.333 191.667L240.667 191.333M252 191L253 192L252 191M304 191L305 192L304 191z"/>
<path style="fill:#d09c8a; stroke:none;" d="M310 191L310 194L311 194L310 191M177 192L178 193L177 192M179 192L178 196L181 193L179 192M224 192L225 193L224 192M227 192L228 193L227 192z"/>
<path style="fill:#201523; stroke:none;" d="M292.333 192.667L292.667 193.333L292.333 192.667z"/>
<path style="fill:#d09c8a; stroke:none;" d="M176 193L175 197L172 196L173 199L177 198L176 193M203 193L204 194L203 193z"/>
<path style="fill:#e2cab8; stroke:none;" d="M177 194L177 196L179 194L177 194z"/>
<path style="fill:#ae7562; stroke:none;" d="M230 194L231 195L230 194M310 194L310 205L311 205L310 194z"/>
<path style="fill:#201523; stroke:none;" d="M197 195L198 196L197 195z"/>
<path style="fill:#e2cab8; stroke:none;" d="M176 196L177 197L176 196z"/>
<path style="fill:#ae7562; stroke:none;" d="M276 196L277 197L276 196z"/>
<path style="fill:#d09c8a; stroke:none;" d="M178 197L179 198L178 197M180 197L181 198L180 197z"/>
<path style="fill:#201523; stroke:none;" d="M192 197L193 198L192 197z"/>
<path style="fill:#d09c8a; stroke:none;" d="M218 199L218 200L224 200L218 199M311 197L311 206L312 206L311 197z"/>
<path style="fill:#ae7562; stroke:none;" d="M182.667 198.333L183.333 198.667L182.667 198.333M221 198L222 199L221 198z"/>
<path style="fill:#d09c8a; stroke:none;" d="M175 199L179 202L179 201L175 199z"/>
<path style="fill:#ae7562; stroke:none;" d="M229 199L230 200L229 199M236 199L237 200L236 199z"/>
<path style="fill:#e2cab8; stroke:none;" d="M178 200L179 201L178 200z"/>
<path style="fill:#201523; stroke:none;" d="M304 201L305 202L304 201z"/>
<path style="fill:#d09c8a; stroke:none;" d="M181 202L181 210L182 210L181 202z"/>
<path style="fill:#ae7562; stroke:none;" d="M210.667 202.333L211.333 202.667L210.667 202.333M183 203L184 204L183 203M311 206L311 210L312 210L311 206z"/>
<path style="fill:#d09c8a; stroke:none;" d="M312 208L312 211L313 211L312 208z"/>
<path style="fill:#ae7562; stroke:none;" d="M230 212C220.444 209.175 209.499 212.552 201 217L201 218C209.259 215.068 228.369 206.688 234 217L231 217L233 220C222.359 220.66 211.935 219.381 202 224L203 226L202 227L198 225L195 228L196 234L199 233L199 239L205 239L204 236L210 233L209 231L214 229L214 230L211 231L211 232L227 230L227 229L221 228L221 227C223.247 226.789 232.417 228.168 230 231L232 235L226 235L224 232L224 236L206 237L206 238L209 238L209 239L205 240C211.895 244.158 222.703 244.047 230 241L234 249L232 252L233 245L235 243L236 243L236 246L237 246L241 230L249 230C248.046 236.825 250.724 242.628 256 247L256 245L259 247L259 241C271.051 241.519 280.645 241.279 292 236L292 243L293 243L294 235L295 235L297 237L295 230L299 228L299 227L292 227L292 226L295 225L287 213L293 223C286.819 218.795 272.824 210.15 266 218L279 217L279 218L265 217L254 218C254.374 213.161 256.22 211.539 261 211C253.82 205.561 251.414 213.951 245.847 215.787C242.503 216.89 237.935 212.891 235 211.653C232.872 210.755 230.447 209.476 230 212M263 209L263 210L286 213C280.716 208.048 269.958 209.039 263 209M181.333 210.667L181.667 211.333L181.333 210.667z"/>
<path style="fill:#554246; stroke:none;" d="M254 218L266 217C266 212.624 275.641 214 279 214L279 215L276 215L276 216L293 223C289.01 211.169 279.513 211.955 269 210.715C262.075 209.897 254.286 209.413 254 218z"/>
<path style="fill:#ae7562; stroke:none;" d="M312 211L312 219L313 219L312 211z"/>
<path style="fill:#d09c8a; stroke:none;" d="M181.333 212.667L181.667 213.333L181.333 212.667z"/>
<path style="fill:#554246; stroke:none;" d="M196 227L198 225L215 221L215 220L209 220L209 219L220 218L220 219L216 219L216 220L233 220L231 217L234 217C232.26 211.706 225.946 211.522 221 212.209C210.122 213.721 200.666 216.331 196 227z"/>
<path style="fill:#201523; stroke:none;" d="M265 212L264 214L265 212M268 212L269 213L268 212M228 213L229 214L228 213z"/>
<path style="fill:#ae7562; stroke:none;" d="M181 214L181 217L182 217L181 214z"/>
<path style="fill:#201523; stroke:none;" d="M225 214L226 215L225 214M265 215L265 216L279 215L265 215z"/>
<path style="fill:#e2cab8; stroke:none;" d="M201 215L202 216L201 215z"/>
<path style="fill:#201523; stroke:none;" d="M219 215L218 217L219 215M222 215L221 219L225 217L222 215z"/>
<path style="fill:#554246; stroke:none;" d="M269 215L269 216L273 216L269 215z"/>
<path style="fill:#ae7562; stroke:none;" d="M186 216L185 218L187 218L186 216z"/>
<path style="fill:#201523; stroke:none;" d="M264 216L265 217L264 216z"/>
<path style="fill:#d09c8a; stroke:none;" d="M181 217L181 228L182 228L181 217z"/>
<path style="fill:#201523; stroke:none;" d="M209 219L209 220L220 219L209 219z"/>
<path style="fill:#d09c8a; stroke:none;" d="M265 217L266 218L265 217z"/>
<path style="fill:#554246; stroke:none;" d="M265 218L265 219L279 218L265 218z"/>
<path style="fill:#e2cab8; stroke:none;" d="M292 217L293 218L292 217z"/>
<path style="fill:#ae7562; stroke:none;" d="M298 217L299 218L298 217M299.333 218.667L299.667 219.333L299.333 218.667M200 219L201 220L200 219z"/>
<path style="fill:#d09c8a; stroke:none;" d="M286 219L287 220L286 219z"/>
<path style="fill:#e2cab8; stroke:none;" d="M293 219L294 220L293 219z"/>
<path style="fill:#ae7562; stroke:none;" d="M199 220L200 221L199 220z"/>
<path style="fill:#d09c8a; stroke:none;" d="M276 220L286 226L286 223L281 223L282 220L276 220z"/>
<path style="fill:#ae7562; stroke:none;" d="M300.333 220.667L300.667 221.333L300.333 220.667M185.333 221.667L185.667 222.333L185.333 221.667z"/>
<path style="fill:#e2cab8; stroke:none;" d="M197 221L198 222L197 221z"/>
<path style="fill:#ae7562; stroke:none;" d="M198 221L199 222L198 221z"/>
<path style="fill:#554246; stroke:none;" d="M225 221L226 222L225 221z"/>
<path style="fill:#d09c8a; stroke:none;" d="M258 221L259 222L258 221z"/>
<path style="fill:#ae7562; stroke:none;" d="M312.333 221.667L312.667 222.333L312.333 221.667z"/>
<path style="fill:#e2cab8; stroke:none;" d="M196 222L193 223L193 226C188.482 226.662 188.723 235.166 188 239L189 239L194 236L194 235L190 235L195 228L194 225C196.269 225.013 196.858 224.182 196 222z"/>
<path style="fill:#ae7562; stroke:none;" d="M301.333 222.667L301.667 223.333L301.333 222.667M197 223L198 224L197 223z"/>
<path style="fill:#d09c8a; stroke:none;" d="M206 228L220 225C215.167 221.788 209.62 223.987 206 228z"/>
<path style="fill:#ae7562; stroke:none;" d="M184 224L183 227L184 224M196.333 224.667L196.667 225.333L196.333 224.667z"/>
<path style="fill:#554246; stroke:none;" d="M230 224L235 232L239 231L239 230L236 231C235.662 226.625 234.331 224.903 230 224M260 231L257 235L287 234C285.1 230.882 283.319 230.636 280 232L281 229L265 228L269 225C264.983 223.452 257.637 225.901 260 231z"/>
<path style="fill:#e2cab8; stroke:none;" d="M300 224L299 227L300 224z"/>
<path style="fill:#d09c8a; stroke:none;" d="M200 227L203 225L200 227M246 225L245 228C242.346 226.837 241.787 226.698 240 229L249 228L246 225M287 227L290 227L289 225L287 227z"/>
<path style="fill:#e2cab8; stroke:none;" d="M297 225L298 226L297 225z"/>
<path style="fill:#ae7562; stroke:none;" d="M302.333 225.667L302.667 226.333L302.333 225.667M187 226L185 230L183 228L182 228L183 242L184 242L183 235L184 235L187 243L190 240L187 226z"/>
<path style="fill:#d09c8a; stroke:none;" d="M190.333 226.667L190.667 227.333L190.333 226.667z"/>
<path style="fill:#554246; stroke:none;" d="M221 227L221 228L227 229L227 230C219.392 228.014 208.015 230.877 204 238L224 236L224 232L226 235L232 235L230 231C233.878 228.331 223.2 226.64 221 227z"/>
<path style="fill:#e2cab8; stroke:none;" d="M301 226L300 229L303 232L304 232L301 226z"/>
<path style="fill:#ae7562; stroke:none;" d="M189.333 227.667L189.667 228.333L189.333 227.667z"/>
<path style="fill:#d09c8a; stroke:none;" d="M199 227L198 229L199 227M302 227L303 228L302 227M313 227L314 228L313 227M217 228L218 229L217 228z"/>
<path style="fill:#201523; stroke:none;" d="M273 228L274 229L273 228z"/>
<path style="fill:#d09c8a; stroke:none;" d="M291 228L292 229L291 228z"/>
<path style="fill:#ae7562; stroke:none;" d="M299 228L300 229L299 228M303.333 228.667L303.667 229.333L303.333 228.667z"/>
<path style="fill:#d09c8a; stroke:none;" d="M189 229L190 230L189 229M209 231L209 232L214 230L209 231z"/>
<path style="fill:#201523; stroke:none;" d="M277 229L278 230L277 229z"/>
<path style="fill:#ae7562; stroke:none;" d="M300 229L301 230L300 229z"/>
<path style="fill:#d09c8a; stroke:none;" d="M313 229L313 235L314 235L313 229z"/>
<path style="fill:#554246; stroke:none;" d="M208 230L205 234L208 230z"/>
<path style="fill:#ae7562; stroke:none;" d="M266 230L264 231L264 232C266.202 232.519 267.179 232.24 266 230z"/>
<path style="fill:#201523; stroke:none;" d="M267 230L270 233L267 230M275 230L276 231L275 230z"/>
<path style="fill:#ae7562; stroke:none;" d="M277 230L276 233L279 231L277 230z"/>
<path style="fill:#201523; stroke:none;" d="M279 230L280 231L279 230M281 230L280 232L282 232L281 230z"/>
<path style="fill:#ae7562; stroke:none;" d="M301 230L302 231L301 230z"/>
<path style="fill:#d09c8a; stroke:none;" d="M199 231L200 232L199 231z"/>
<path style="fill:#554246; stroke:none;" d="M251 231L252 232L251 231z"/>
<path style="fill:#d09c8a; stroke:none;" d="M265 231L266 232L265 231M277 231L278 232L277 231z"/>
<path style="fill:#e2cab8; stroke:none;" d="M300 231L301 232L300 231z"/>
<path style="fill:#ae7562; stroke:none;" d="M302.333 231.667L302.667 232.333L302.333 231.667z"/>
<path style="fill:#d09c8a; stroke:none;" d="M304 231L304 233L306 233L304 231z"/>
<path style="fill:#ae7562; stroke:none;" d="M188.333 232.667L188.667 233.333L188.333 232.667z"/>
<path style="fill:#d09c8a; stroke:none;" d="M208 232L209 233L208 232z"/>
<path style="fill:#201523; stroke:none;" d="M283.667 232.333L284.333 232.667L283.667 232.333z"/>
<path style="fill:#ae7562; stroke:none;" d="M213 233L212 236L213 233z"/>
<path style="fill:#554246; stroke:none;" d="M235 233L236 234L235 233z"/>
<path style="fill:#ae7562; stroke:none;" d="M306 233L309 236L306 233z"/>
<path style="fill:#d09c8a; stroke:none;" d="M188 234L188 237L189 237L188 234z"/>
<path style="fill:#ae7562; stroke:none;" d="M195 234L196 235L195 234z"/>
<path style="fill:#e2cab8; stroke:none;" d="M303 234L304 237L305 237L305 234L303 234z"/>
<path style="fill:#554246; stroke:none;" d="M183 235L186 245L183 235M225 235L226 236L225 235M254 235L255 236L254 235M263 235L263 236L274 239L274 238L263 235z"/>
<path style="fill:#ae7562; stroke:none;" d="M305 235L306 236L305 235z"/>
<path style="fill:#201523; stroke:none;" d="M306 235L307 236L306 235M307 236L308 237L307 236z"/>
<path style="fill:#ae7562; stroke:none;" d="M189.333 237.667L189.667 238.333L189.333 237.667z"/>
<path style="fill:#554246; stroke:none;" d="M190 237L190 239L192 237L190 237z"/>
<path style="fill:#ae7562; stroke:none;" d="M191 238L191 239L195 239L191 238z"/>
<path style="fill:#554246; stroke:none;" d="M218 240L218 241L228 238L218 240M233 237L233 238L236 243L237 243L233 237M251 237L252 238L251 237z"/>
<path style="fill:#ae7562; stroke:none;" d="M306 237L306 240L308 239L308 238L306 237z"/>
<path style="fill:#201523; stroke:none;" d="M308.333 237.667L308.667 238.333L308.333 237.667M310 237L309 240L310 237z"/>
<path style="fill:#d09c8a; stroke:none;" d="M255 238L256 239L255 238z"/>
<path style="fill:#e2cab8; stroke:none;" d="M305 238L306 239L305 238z"/>
<path style="fill:#ae7562; stroke:none;" d="M312 238L311 241L308 240C306.463 246.455 309.548 269.078 299 266L298 269L294 268L294 269L296 270L290 270L281 294L280 294L280 288L279 262L278 262L277 264L273 257L279 256L279 255L264 254C263.778 258.94 260.443 259.24 256 258.967C245.187 258.302 238.16 254.792 228 261L229 252C226.012 253.427 223.856 254.621 225 258C217.715 260.309 212.295 259.93 205 258L205 259L208 263L214 264L216 266L216 267L211 266C211 269.024 209.327 267.629 208 266L207 266C201.496 268.377 194.365 265.711 195 274L194 274L193 272L192 275L190 275L187 244L185 243L184 243L184 250L179 248L181 266L182 266L184 258L185 258L184 273L188 281L189 281L189 277C193.551 281.016 193.036 285.415 192 291L191 291L190 283L189 283L186 288L193 291L192 294L196 292L196 298L198 298L199 295L198 295L197 297L196 284L197 284L198 291L199 291L200 289L202 299L203 300L206 299L216 304C217.851 313.286 225.48 317.766 234 320L237 319L237 316L240 320L245 320L249 317L249 319L258 316L259 319L284 304L286 305L291 296L300 282L299 289L303 290L299 301L300 301L304 289C300.944 283.805 303.474 274.146 306 269L307 285L304 288L305 288L311 286L311 285L308 276L312 277L310 272L311 268L315 270L313 253L312 249C320.306 259.222 319.495 264.145 314 275C326.612 272.837 322.948 251.522 321 243L310 246L312 238z"/>
<path style="fill:#e2cab8; stroke:none;" d="M190 239L190 240L194 240L190 239z"/>
<path style="fill:#ae7562; stroke:none;" d="M195 239C195.067 247.001 197.289 254.372 205 258L205 257C198.114 251.917 198.064 246.102 195 239z"/>
<path style="fill:#554246; stroke:none;" d="M254 239L255 240L254 239z"/>
<path style="fill:#d09c8a; stroke:none;" d="M310 246L321 243C316.299 238.545 311.341 239.453 310 246M232.667 240.333L233.333 240.667L232.667 240.333z"/>
<path style="fill:#e2cab8; stroke:none;" d="M188 242L187 250L188 250L190 242L188 242z"/>
<path style="fill:#554246; stroke:none;" d="M233 242L234 243L233 242M253 242L254 243L253 242M235 243L234 249L235 249L235 243z"/>
<path style="fill:#ae7562; stroke:none;" d="M291.333 243.667L291.667 244.333L291.333 243.667z"/>
<path style="fill:#d09c8a; stroke:none;" d="M321 243L321 246L322 246L321 243M179 248L184 250L184 244L179 248z"/>
<path style="fill:#554246; stroke:none;" d="M254 244L255 245L254 244M308 244L307 270L308 270L308 244z"/>
<path style="fill:#d09c8a; stroke:none;" d="M233.333 245.667L233.667 246.333L233.333 245.667z"/>
<path style="fill:#e2cab8; stroke:none;" d="M194 246L195 247L194 246M197 246L198 247L197 246z"/>
<path style="fill:#d09c8a; stroke:none;" d="M322 246L322 249L323 249L322 246z"/>
<path style="fill:#e2cab8; stroke:none;" d="M193 247L194 248L193 247z"/>
<path style="fill:#ae7562; stroke:none;" d="M235 247L236 248L235 247M256 247L260 251L260 250L256 247M289 247L279 254L279 255C283.42 254.108 287.88 251.603 289 247z"/>
<path style="fill:#554246; stroke:none;" d="M257 248L258 249L257 248M180.667 249.333L181.333 249.667L180.667 249.333z"/>
<path style="fill:#e2cab8; stroke:none;" d="M191 249L192 250L191 249z"/>
<path style="fill:#554246; stroke:none;" d="M233 249L234 250L233 249z"/>
<path style="fill:#ae7562; stroke:none;" d="M261 249L266 252L266 251L261 249z"/>
<path style="fill:#d09c8a; stroke:none;" d="M312 249L313 253L310 254C313.949 259.997 316.796 262.78 315 270L311 268L310 272L312 277L308 276L311 285L311 286L307 286L307 287C323.269 286.109 324 263.112 324 251L323 251C323 258.951 323.289 272.102 314 275C320.685 266.02 321.139 256.983 312 249z"/>
<path style="fill:#e2cab8; stroke:none;" d="M236 253L241 251C238.502 249.678 237.23 250.54 236 253z"/>
<path style="fill:#d09c8a; stroke:none;" d="M179.333 251.667L179.667 252.333L179.333 251.667z"/>
<path style="fill:#ae7562; stroke:none;" d="M229 251L230 252L229 251z"/>
<path style="fill:#e2cab8; stroke:none;" d="M283 251L284 252L283 251M200 252L203 255L200 252z"/>
<path style="fill:#ae7562; stroke:none;" d="M266.667 252.333L267.333 252.667L266.667 252.333z"/>
<path style="fill:#e2cab8; stroke:none;" d="M281 252L282 253L281 252z"/>
<path style="fill:#d09c8a; stroke:none;" d="M200 253L201 254L200 253z"/>
<path style="fill:#e2cab8; stroke:none;" d="M266 253L267 254L266 253z"/>
<path style="fill:#d09c8a; stroke:none;" d="M201 254L202 255L201 254z"/>
<path style="fill:#e2cab8; stroke:none;" d="M268 254L268 255L275 255L268 254M199 255L200 256L199 255M231 255L232 256L231 255z"/>
<path style="fill:#ae7562; stroke:none;" d="M221.667 257.333L222.333 257.667L221.667 257.333z"/>
<path style="fill:#d09c8a; stroke:none;" d="M184 258L185 259L184 258z"/>
<path style="fill:#e2cab8; stroke:none;" d="M184 259L184 262L185 262L184 259z"/>
<path style="fill:#d09c8a; stroke:none;" d="M183 260L182 266L181 266L181 263L180 263C180 269.946 179.459 276.466 182.116 283C182.878 284.875 183.949 288.814 186.806 287.718C191.884 285.768 187.9 274.141 184 273L183 260z"/>
<path style="fill:#554246; stroke:none;" d="M229 264L233 267C225.822 269.041 217.45 270.443 213 277L218 273L219 273L219 277L214 278L216 284L224 284L224 283L220 280L229 278L227 283L231 283L234 278L242 276L221 278C227.349 270.344 236.88 271 246 271L237 262L243 262C238.699 259.103 232.038 259.565 229 264z"/>
<path style="fill:#201523; stroke:none;" d="M237 260L238 261L237 260z"/>
<path style="fill:#554246; stroke:none;" d="M252 260L252 261L260 263L261 262L252 260M182 261L183 262L182 261z"/>
<path style="fill:#201523; stroke:none;" d="M235 261L236 262L235 261z"/>
<path style="fill:#e2cab8; stroke:none;" d="M183 263L184 264L183 263z"/>
<path style="fill:#ae7562; stroke:none;" d="M207 263L208 264L207 263z"/>
<path style="fill:#d09c8a; stroke:none;" d="M309 263L309 268L313 264L309 263z"/>
<path style="fill:#554246; stroke:none;" d="M247 271C257.386 270.7 263.446 267.379 271 277L253 275L262 277C261.656 281.555 260.213 283.364 256 285L256 286L274 282L274 277L277 278C275.877 268.01 249.281 257.019 247 271z"/>
<path style="fill:#ae7562; stroke:none;" d="M280 264L281 265L280 264M210 265L211 266L210 265M233 265L234 266L233 265M284 270L287 269L286 272L289 271L290 267L284 270z"/>
<path style="fill:#201523; stroke:none;" d="M240 269L240 270L244 270L240 269z"/>
<path style="fill:#ae7562; stroke:none;" d="M191 269L192 270L191 269M293 269L294 270L293 269z"/>
<path style="fill:#554246; stroke:none;" d="M305 269L302 289L307 285L305 269M187 270L188 271L187 270z"/>
<path style="fill:#ae7562; stroke:none;" d="M191 271L192 272L191 271z"/>
<path style="fill:#d09c8a; stroke:none;" d="M254 271L268 276C264.264 271.752 259.466 271.113 254 271M308 271L309 272L308 271z"/>
<path style="fill:#201523; stroke:none;" d="M219 272L220 273L219 272z"/>
<path style="fill:#d09c8a; stroke:none;" d="M227 274L227 275L252 273C244.975 270.176 234.044 271.767 227 274z"/>
<path style="fill:#554246; stroke:none;" d="M214 273L215 274L214 273z"/>
<path style="fill:#201523; stroke:none;" d="M218 273L215 278L219 277L218 273z"/>
<path style="fill:#ae7562; stroke:none;" d="M285 273L285 274L288 274L285 273z"/>
<path style="fill:#e2cab8; stroke:none;" d="M185 274L186 275L185 274z"/>
<path style="fill:#d09c8a; stroke:none;" d="M225.667 275.333L226.333 275.667L225.667 275.333z"/>
<path style="fill:#201523; stroke:none;" d="M271 275L271 279L265 277L265 283L273 279L271 275z"/>
<path style="fill:#ae7562; stroke:none;" d="M182 276L184 279L182 276z"/>
<path style="fill:#554246; stroke:none;" d="M194 276L193 278L193 280L195 280L195 284L197 282L204 288L204 287L203 279L194 276M243 276L244 277L243 276M250.667 276.333L251.333 276.667L250.667 276.333z"/>
<path style="fill:#ae7562; stroke:none;" d="M186 277L186 280L187 280L186 277z"/>
<path style="fill:#554246; stroke:none;" d="M189 277L191 291L192 291L191 277L189 277z"/>
<path style="fill:#ae7562; stroke:none;" d="M257 277L259 284L260 284L262 278L257 277z"/>
<path style="fill:#201523; stroke:none;" d="M220 280L227 284L229 278L220 280z"/>
<path style="fill:#ae7562; stroke:none;" d="M234 278L233 280L234 278z"/>
<path style="fill:#d09c8a; stroke:none;" d="M252 281L243 280L243 281L247 286C246.893 282.793 248.302 279.154 251 283L257 282L258 282L257 278L252 281M259 279L259 280L261 281L262 281L261 278L259 279M231 285L237 285L237 284L233 284L236 280C232.576 279.704 231.529 281.866 231 285z"/>
<path style="fill:#e2cab8; stroke:none;" d="M253 284L258 283L257 279L253 284M260 279L259 283L260 279z"/>
<path style="fill:#d09c8a; stroke:none;" d="M210 280C209.354 283.885 209.62 287.622 213 290L212 280L210 280z"/>
<path style="fill:#e2cab8; stroke:none;" d="M233 284L238 284L237 280L233 284z"/>
<path style="fill:#d09c8a; stroke:none;" d="M237 280L240 286L241 280L237 280z"/>
<path style="fill:#e2cab8; stroke:none;" d="M241 280L240 286L244 286L245 281L241 280M247 286L252 284L251 280C247.033 280.663 246.345 282.107 247 286z"/>
<path style="fill:#ae7562; stroke:none;" d="M263 280L263 283L265 282L265 281L263 280M195 281L196 282L195 281z"/>
<path style="fill:#d09c8a; stroke:none;" d="M259 281L260 282L259 281z"/>
<path style="fill:#ae7562; stroke:none;" d="M261.333 281.667L261.667 282.333L261.333 281.667M227 283L231 284L227 283z"/>
<path style="fill:#554246; stroke:none;" d="M298 282C297.206 285.859 295.286 295.372 291 296L286 305L284 304L259 319L258 316L249 319L249 317L245 320L240 320L237 316L237 319L234 320C225.705 317.095 218.854 312.783 216 304L206 299L203 300L202 299C202.445 296.886 200.713 287.061 199 291L198 291L197 284L196 284L198 295L199 295L198 298L196 298L196 292L193 293C195.168 305.16 205.94 327.137 221 324L219 319L222 318L223 321L235 322L245 325L246 321L247 321L248 323L259 323L272 318L270 324L276 321L286 319L282 324C294.785 315.185 297.093 303.273 303 290L299 289L300 282L298 282M225 283L231 285L231 284L225 283z"/>
<path style="fill:#d09c8a; stroke:none;" d="M228 283L229 284L228 283z"/>
<path style="fill:#ae7562; stroke:none;" d="M252 283L252 285L254 285L252 283z"/>
<path style="fill:#d09c8a; stroke:none;" d="M257 283L258 284L257 283z"/>
<path style="fill:#201523; stroke:none;" d="M258.333 283.667L258.667 284.333L258.333 283.667z"/>
<path style="fill:#d09c8a; stroke:none;" d="M260 283L261 284L260 283z"/>
<path style="fill:#201523; stroke:none;" d="M262 283L263 284L262 283z"/>
<path style="fill:#554246; stroke:none;" d="M301 283L302 284L301 283z"/>
<path style="fill:#d09c8a; stroke:none;" d="M251 284L249 285L249 286L251 284M254 284L254 285L257 285L254 284M238 290L238 291L257 290L257 291L255 293L258 294L255 304L252 304L252 308L255 311C259.708 310.902 267.303 310.766 268 305C271.081 304.14 271.522 303.092 271 300L273 300L273 288L267 288L269 284L238 290z"/>
<path style="fill:#554246; stroke:none;" d="M198 285L199 286L198 285z"/>
<path style="fill:#d09c8a; stroke:none;" d="M222 285L226 291L221 288L220 288C212.261 302.504 227.292 311.01 239 313L242 307L237 307L229 294L229 293L237 291L222 285z"/>
<path style="fill:#201523; stroke:none;" d="M230 285L231 286L230 285z"/>
<path style="fill:#554246; stroke:none;" d="M234 285L233 287L235 287L234 285M252 285L252 287L254 287L254 285L252 285M231 286L232 287L231 286z"/>
<path style="fill:#d09c8a; stroke:none;" d="M236 286L239 288L236 286M241 286L242 287L241 286z"/>
<path style="fill:#201523; stroke:none;" d="M240 287L241 288L240 287z"/>
<path style="fill:#554246; stroke:none;" d="M241 287L242 288L241 287M243.667 287.333L244.333 287.667L243.667 287.333M248 287L249 288L248 287z"/>
<path style="fill:#d09c8a; stroke:none;" d="M304 288L305 289L304 288M186 289L187 290L186 289M187 290L188 291L187 290z"/>
<path style="fill:#554246; stroke:none;" d="M192.333 291.667L192.667 292.333L192.333 291.667z"/>
<path style="fill:#ae7562; stroke:none;" d="M226 291L229 293L226 291M299 291L300 292L299 291z"/>
<path style="fill:#d09c8a; stroke:none;" d="M303 291L304 292L303 291z"/>
<path style="fill:#ae7562; stroke:none;" d="M296 293L296 294L298 296L299 296L298 292L296 293z"/>
<path style="fill:#554246; stroke:none;" d="M291 293L292 294L291 293z"/>
<path style="fill:#d09c8a; stroke:none;" d="M302 293L303 294L302 293M192 294L193 295L192 294M255 294L256 295L255 294z"/>
<path style="fill:#ae7562; stroke:none;" d="M193 296L194 297L193 296z"/>
<path style="fill:#d09c8a; stroke:none;" d="M301 296L302 297L301 296z"/>
<path style="fill:#554246; stroke:none;" d="M203 297L205 299L203 297M289 297L290 298L289 297z"/>
<path style="fill:#ae7562; stroke:none;" d="M194 298L195 299L194 298z"/>
<path style="fill:#554246; stroke:none;" d="M241 298L238 303L239 303L241 298M244 298L245 304L248 303L244 298M248 298L250 300L248 298z"/>
<path style="fill:#d09c8a; stroke:none;" d="M300 299L301 300L300 299z"/>
<path style="fill:#ae7562; stroke:none;" d="M195 300L196 301L195 300z"/>
<path style="fill:#554246; stroke:none;" d="M212 301L213 302L212 301M241 301L242 302L241 301z"/>
<path style="fill:#d09c8a; stroke:none;" d="M299 301L300 302L299 301z"/>
<path style="fill:#ae7562; stroke:none;" d="M196 302L197 303L196 302M298.333 302.667L298.667 303.333L298.333 302.667z"/>
<path style="fill:#d09c8a; stroke:none;" d="M196 303L197 304L196 303z"/>
<path style="fill:#ae7562; stroke:none;" d="M208.333 303.667L208.667 304.333L208.333 303.667z"/>
<path style="fill:#554246; stroke:none;" d="M280 303L278 307L281 307L280 303z"/>
<path style="fill:#ae7562; stroke:none;" d="M197 304L198 305L197 304z"/>
<path style="fill:#d09c8a; stroke:none;" d="M298 304L299 305L298 304z"/>
<path style="fill:#ae7562; stroke:none;" d="M297 305C292.404 315.706 282.746 325.36 272 330L274 332L274 333L266 335C266.087 343.396 251.701 338.851 249 344C236.777 341.898 227.399 341.43 217.325 332.705C212.971 328.935 210.42 323.651 206 320C208.385 329.988 210.007 335.009 218 342L209 342L211 345L208 345L207 348L210 354L213 355L212 357L212 360L212 361L214 363L211 364L212 367L207 365L207 366L209 368L206 367L206 368L208 374L207 374L207 372L206 372C208.26 389.26 233.051 382.763 238 397L239 397L239 393L245 393L245 395L246 395L247 393L248 397L250 395L251 395L260 397L261 396L260 394L267 392C267 388.773 277.873 387.596 281 388C280.834 379.314 285.601 379.361 292 375L292 379L295 378L293 375L302 371L301 368L304 367L304 366L297 370L299 367L290 369L289 372L283 373L283 372C286.6 371.045 288.494 368.571 285 366L285 365L289 367L292 367L289 363L285 361L288 363L290 359L289 359L287 362L292 354L295 349L295 348L293 348L293 346C296.493 345.434 293.975 342.251 292 341L292 340L295 341L295 333L290 335C295.325 328.223 299.607 313.584 297 305M198 306L199 307L198 306M199 308L200 309L199 308z"/>
<path style="fill:#d09c8a; stroke:none;" d="M297 308L290 335L295 333L295 341L292 340L292 341C294.714 342.809 296.807 346.952 293 346L295 348L295 349L292 354L287 362L289 359L290 359L288 363L285 361L289 363L292 367L289 367L285 365L285 366C287.229 368.968 286.106 370.403 283 372L283 373C286.35 372.788 289.422 372.642 290 369L299 367L297 370L304 366L304 367L301 368L302 371L293 375L295 378L292 379L292 375C284.97 378.593 280.524 379.311 281 388C277.566 387.648 267.593 388.25 267 392L260 394L260 397L251 395L250 395L248 397C247.805 395.194 247.273 392.071 246 395L245 395L245 393L244 393L239 393L239 397L238 397C235.04 382.645 210.165 388.268 206 372L207 372L207 374L208 374L206 368L206 367L209 368L207 366L207 365L212 367L211 364L214 363L212 361L212 360C214.006 358.873 214.006 358.127 212 357L213 355L210 354L207 348L208 345L211 345L209 342L218 342L208.723 330.996L205 319L200.387 355.998L191 367L190 367L189 365L186 370L187 372L189 372C191.417 385.088 209.144 386.412 217 394L221 393L220 395L224 396C251.215 398.088 275.768 400.628 301 386.688C308.092 382.77 312.651 376.655 319 372L321 366L320 366L320 368L319 368C317.543 362.955 312.035 359.731 307 359L299.184 340L297 308z"/>
<path style="fill:#ae7562; stroke:none;" d="M200 310L201 311L200 310M201 311L202 312L201 311z"/>
<path style="fill:#d09c8a; stroke:none;" d="M201 312L202 313L201 312z"/>
<path style="fill:#ae7562; stroke:none;" d="M202 313L203 314L202 313z"/>
<path style="fill:#d09c8a; stroke:none;" d="M203 315L204 316L203 315z"/>
<path style="fill:#554246; stroke:none;" d="M259.333 315.667L259.667 316.333L259.333 315.667z"/>
<path style="fill:#201523; stroke:none;" d="M205 316L207 318L205 316M215 316L216 317L215 316M219.333 316.667L219.667 317.333L219.333 316.667M284 316L283 318L285 318L284 316M287 316L287 318L289 316L287 316z"/>
<path style="fill:#d09c8a; stroke:none;" d="M204 317L205 318L204 317z"/>
<path style="fill:#554246; stroke:none;" d="M233 317L234 318L233 317z"/>
<path style="fill:#ae7562; stroke:none;" d="M205 318L206 319L205 318z"/>
<path style="fill:#201523; stroke:none;" d="M217 318L218 319L217 318M219 319L221 324L209 321L210 325L213 324L212 327L230 332L226 331L226 332C239.554 338.39 256.585 337.343 269.91 330.822C274.33 328.659 280.367 325.817 282 321L286 319L276 321L270 324L272 318C267.326 318.23 261.933 319.077 259 323L247 321L246 321L245 325L235 322L223 321L222 318L219 319M207 319L209 321L207 319M224 319L225 320L224 319M216 320L217 321L216 320z"/>
<path style="fill:#554246; stroke:none;" d="M221 320L222 321L221 320z"/>
<path style="fill:#ae7562; stroke:none;" d="M237 321L238 322L237 321z"/>
<path style="fill:#554246; stroke:none;" d="M268.333 322.667L268.667 323.333L268.333 322.667M209 323L210 324L209 323M211 324L211 327L212 327L213 324L211 324M280 324L273 330L280 324M214.667 325.333L215.333 325.667L214.667 325.333M223 325L224 326L223 325M255 330L255 331L258 332L267 326C262.212 324.168 258.827 327.429 255 330M269 325L270 326L269 325M213 326L212 327C220.034 340.156 234.829 343.248 249 344C254.04 340.941 265.667 342.384 266 335L274 333L274 332L272 330C254.861 334.9 243.566 337.427 226 332L226 331L230 332L213 326M226 326L227 327L226 326M271 326L272 327L271 326M219 327L221 329L219 327M268 327L269 328L268 327M222.667 328.333L223.333 328.667L222.667 328.333M262 328L259 332L262 328M229 329L230 330L229 329M242 331L242 332L245 333L246 333L245 330L242 331M250 332L253 331L250 332M274 330L274 332L276 332L274 330M235 333L238 332L235 333M247.667 331.333L248.333 331.667L247.667 331.333M230 332L231 333L230 332M273 334L274 337L275 337L273 334M270 335L271 336L270 335z"/>
<path style="fill:#d09c8a; stroke:none;" d="M289 335L290 336L289 335M294 337L295 338L294 337z"/>
<path style="fill:#554246; stroke:none;" d="M268 338L269 339L268 338z"/>
<path style="fill:#ae7562; stroke:none;" d="M213 340L214 341L213 340z"/>
<path style="fill:#554246; stroke:none;" d="M261 340L262 341L261 340z"/>
<path style="fill:#d09c8a; stroke:none;" d="M218.667 342.333L219.333 342.667L218.667 342.333M221 342L222 343L221 342M211 343L212 344L211 343z"/>
<path style="fill:#554246; stroke:none;" d="M234 344L235 345L234 344z"/>
<path style="fill:#d09c8a; stroke:none;" d="M213 345L211 348L213 345z"/>
<path style="fill:#554246; stroke:none;" d="M240.667 345.333L241.333 345.667L240.667 345.333M244 345L245 346L244 345M248 345L249 346L248 345z"/>
<path style="fill:#d09c8a; stroke:none;" d="M209 347L210 348L209 347M223 350L223 351L226 351L223 350M211.667 352.333L212.333 352.667L211.667 352.333z"/>
<path style="fill:#ae7562; stroke:none;" d="M293 352L294 353L293 352z"/>
<path style="fill:#d09c8a; stroke:none;" d="M306 354L308 356L306 354z"/>
<path style="fill:#ae7562; stroke:none;" d="M307 354L307 355L313 355L307 354z"/>
<path style="fill:#d09c8a; stroke:none;" d="M313 354L314 355L313 354z"/>
<path style="fill:#ae7562; stroke:none;" d="M294 355L295 356L294 355z"/>
<path style="fill:#554246; stroke:none;" d="M308 355L309 356L308 355z"/>
<path style="fill:#201523; stroke:none;" d="M309 355L309 356L321 364C317.737 358.803 314.736 356.78 309 355z"/>
<path style="fill:#554246; stroke:none;" d="M310 355L310 356L314 357L310 355z"/>
<path style="fill:#ae7562; stroke:none;" d="M314 355L315 356L314 355M309 356L310 357L309 356z"/>
<path style="fill:#554246; stroke:none;" d="M315 356L321 364L319 363L319 364L321 374L319 374L319 378L320 380L323 380L323 377L321 378L321 377L321 374L324 374L324 375L326 379L323 383L326 384L327 384L326 380L333 385L332 380L337 383L334 385L333 393L338 394L350 394L362 394L361 396L366 398L367 398L368 395L369 400L373 398L371 400L371 401L378 405L379 402L382 405L385 404L384 407L388 408L392 404L393 408L395 407L397 416L401 433L402 433L404 413L405 413L406 417L409 416L411 417L415 435L420 431L425 429C420.885 436.482 423.995 442.878 424 451L425 451L426 434L427 434L429 454L435 454L434 437L435 437L439 442C436.822 432.59 431.073 418.07 421 415C420.023 409.437 413.547 403.578 408.961 400.381C395.705 391.14 375.405 385.372 360 381L361 378L337 366L337 367L341 371L332 366L322 366L321 359L315 356z"/>
<path style="fill:#ae7562; stroke:none;" d="M316 356L317 357L316 356z"/>
<path style="fill:#d09c8a; stroke:none;" d="M310 357L311 358L310 357z"/>
<path style="fill:#554246; stroke:none;" d="M311 357L312 358L311 357z"/>
<path style="fill:#ae7562; stroke:none;" d="M318 357L319 358L318 357z"/>
<path style="fill:#d09c8a; stroke:none;" d="M190 358L192 360L190 358z"/>
<path style="fill:#ae7562; stroke:none;" d="M191 358L192 359L191 358z"/>
<path style="fill:#d09c8a; stroke:none;" d="M283.333 358.667L283.667 359.333L283.333 358.667z"/>
<path style="fill:#ae7562; stroke:none;" d="M312 358L313 359L312 358M319 358L320 359L319 358z"/>
<path style="fill:#d09c8a; stroke:none;" d="M320 358L321 359L320 358z"/>
<path style="fill:#ae7562; stroke:none;" d="M188 359L188 360L191 360L191 359L188 359z"/>
<path style="fill:#554246; stroke:none;" d="M189 359L190 360L189 359z"/>
<path style="fill:#d09c8a; stroke:none;" d="M313 359L314 360L313 359z"/>
<path style="fill:#554246; stroke:none;" d="M314 359L315 360L314 359z"/>
<path style="fill:#ae7562; stroke:none;" d="M321 359L320 360L322 366L332 366L341 371L337 365L321 359z"/>
<path style="fill:#d09c8a; stroke:none;" d="M185 360L186 361L185 360z"/>
<path style="fill:#ae7562; stroke:none;" d="M186 360L187 361L186 360z"/>
<path style="fill:#554246; stroke:none;" d="M187 360L185 361L166 373L165 373C163.231 370.966 161.769 370.966 160 373L163 372L162 376L156 376L156 377L158 378L148 381L149 379C141.518 383.324 130.806 389.102 122 389L107 396C103.958 395.699 101.437 395.714 101 399L88 404C84.3297 409.359 78.2926 419.062 72 421C68.7613 427.835 62.9356 436.273 64 444L59 452L60 452L60 450L61 450L61 455L59 453L58 453L57 458L58 458L59 456L60 460C55.9699 460.668 56.9748 469.845 58 473L57 480L54 482L58 508L57 502L58 502L58 506L59 506C59.1594 502.55 58.843 496.579 63 496L61 494C63.8352 483.915 70.134 470.325 69 460L72 459L70 454L71 454L71 456L72 456L76 425L76 431L79 432L77 437L80 469L81 469C81 460.392 78.6286 446.752 85 440L85 439L82 434L86 437L87 437L86 430L89 429L89 423L92 423L90 421C93.527 420.068 94.4616 418.552 95 415L96 415L98 419L99 419L98 416C101.966 420.605 99.496 428.46 98.5648 434C96.0511 448.956 92 463.759 92 479L93 479L98 456L101 440L103 422L106 422L111 415L111 414L107 416L106 415L109 407L110 407L113 411L112 408L116 408L116 407L114 406L123 405L120 405L121 410L123 409L123 410L121 415L119 413L119 415L118 415L118 413L117 413L119 416L116 419L115 416L114 416C115.844 425.083 106.562 436.433 103 445L105 443C110.641 441.95 116.488 431.629 120 427L118 426L119 425L124 425L127 419L136 412L135 414L136 414L140 407L148 407L145 405L146 402L150 406L151 406L150 403L153 399L157 400L155 396L158 399L159 399L160 392L161 392L160 395L169 394L171 397L172 397L169 392L165 394L173 391L174 399L168 398L168 399L173 402L174 402L176 399L176 398L174 396L177 401L178 401L182 397L182 396L179 395L183 395L183 394L177 393L176 393L175 395L174 391L183 392L183 386L188 388L187 394L192 391L186 385L191 385L189 383L189 382L189 360L187 360z"/>
<path style="fill:#ae7562; stroke:none;" d="M315 360L316 361L315 360z"/>
<path style="fill:#d09c8a; stroke:none;" d="M181 363L184 362L181 363z"/>
<path style="fill:#ae7562; stroke:none;" d="M184 361L185 362L184 361z"/>
<path style="fill:#201523; stroke:none;" d="M186 361L187 362L186 361z"/>
<path style="fill:#d09c8a; stroke:none;" d="M196 361L197 362L196 361z"/>
<path style="fill:#554246; stroke:none;" d="M317 361L318 362L317 361z"/>
<path style="fill:#d09c8a; stroke:none;" d="M177.667 362.333L178.333 362.667L177.667 362.333z"/>
<path style="fill:#ae7562; stroke:none;" d="M174 366L161 370L161 371L165 373L166 373L184 362L174 366z"/>
<path style="fill:#201523; stroke:none;" d="M185 362L186 363L185 362z"/>
<path style="fill:#d09c8a; stroke:none;" d="M216 362L216 365L217 365L216 362M282 362L283 363L282 362z"/>
<path style="fill:#554246; stroke:none;" d="M318 362L319 363L318 362z"/>
<path style="fill:#d09c8a; stroke:none;" d="M219 363L218 365L219 363z"/>
<path style="fill:#ae7562; stroke:none;" d="M296 363L297 364L296 363z"/>
<path style="fill:#d09c8a; stroke:none;" d="M330 363L331 364L330 363M173 364L174 365L173 364z"/>
<path style="fill:#554246; stroke:none;" d="M175 364L176 365L175 364z"/>
<path style="fill:#d09c8a; stroke:none;" d="M185 364L186 365L185 364M213 364L214 365L213 364M319 364L320 365L319 364M333 364L334 365L333 364M171 365L172 366L171 365z"/>
<path style="fill:#554246; stroke:none;" d="M173 365L174 366L173 365z"/>
<path style="fill:#d09c8a; stroke:none;" d="M221 365L222 366L221 365z"/>
<path style="fill:#ae7562; stroke:none;" d="M320 365L321 366L320 365z"/>
<path style="fill:#554246; stroke:none;" d="M334 365L335 366L334 365z"/>
<path style="fill:#d09c8a; stroke:none;" d="M337 365L338 366L337 365M169 366L170 367L169 366M185.333 366.667L185.667 367.333L185.333 366.667z"/>
<path style="fill:#ae7562; stroke:none;" d="M305 366L306 367L305 366M339.667 366.333L340.333 366.667L339.667 366.333M342 367L343 368L342 367z"/>
<path style="fill:#d09c8a; stroke:none;" d="M343 367L344 368L343 367z"/>
<path style="fill:#ae7562; stroke:none;" d="M185 368L186 369L185 368M320 368L321 369L320 368M344 368L345 369L344 368z"/>
<path style="fill:#d09c8a; stroke:none;" d="M286 369L287 370L286 369M300 369L301 370L300 369z"/>
<path style="fill:#ae7562; stroke:none;" d="M346 369L347 370L346 369z"/>
<path style="fill:#d09c8a; stroke:none;" d="M160 370L161 371L160 370z"/>
<path style="fill:#ae7562; stroke:none;" d="M186 370L187 371L186 370z"/>
<path style="fill:#e2cab8; stroke:none;" d="M187 370L188 371L187 370z"/>
<path style="fill:#ae7562; stroke:none;" d="M205 370L206 371L205 370z"/>
<path style="fill:#e2cab8; stroke:none;" d="M318 370L319 371L318 370z"/>
<path style="fill:#ae7562; stroke:none;" d="M319 370L320 371L319 370z"/>
<path style="fill:#201523; stroke:none;" d="M320 370L321 371L320 370z"/>
<path style="fill:#ae7562; stroke:none;" d="M347 370L348 371L347 370z"/>
<path style="fill:#d09c8a; stroke:none;" d="M348 370L349 371L348 370z"/>
<path style="fill:#ae7562; stroke:none;" d="M151 377C146.969 375.656 144.446 377.768 144 380L139 382L136 381C122.932 391.966 98.7246 389.567 88 404L89 405L101 399C101 395.779 104.243 395.644 107 396L122 389C130.371 389.555 142.498 384.076 149 379L148 381L149 381L158 378L156 377L156 376L162 376L163 372L160 373C157.468 370.012 151.435 373.7 151 377z"/>
<path style="fill:#201523; stroke:none;" d="M319 371C299.193 399.115 250.616 405.795 220 394.91C207.187 390.355 198.808 382.612 188 375L191 385L186 385L192 391L187 394L188 388L183 386L183 392L174 391L175 395L176 393L177 393L183 394L183 395L179 395L182 396L182 397L178 401L177 401C177.522 397.908 177.081 396.86 174 396L176 398L176 399L174 402L173 402L168 399L168 398L174 399L173 391L165 394L169 392L172 397L171 397L169 394L160 395L161 392L160 392L159 399L158 399L155 396L157 400L153 399L150 403L151 405L151 406L150 406C148.446 403.306 147.142 402.428 145 405L148 407L140 407L136 414L135 414L136 412L135 412L127 419L124 425L118 426L120 427L120 428L103 445C107.274 437.652 116.82 424.111 114 416L115 416L116 419L119 416L117 413L118 413L119 415L119 413L120 413L121 415L123 409L121 410L120 405L123 405L114 406L116 407L116 408L112 408L113 411L110 407L109 407L106 415L107 416L111 414L111 415L106 422L103 422L101 440C97.2984 442.012 96.6877 452.223 98 456C92.7239 460.524 93.2363 472.553 93 479L92 479C92.0018 463.088 96.8285 447.671 99 432C99.659 427.245 102.271 419.365 98 416L99 419L98 419L96 415L95 415L90 421L92 423L89 423L89 429L86 430L87 437L86 437L82 434L85 439L85 440C77.9769 444.942 80.9992 461.475 81 469L80 469C79.3121 460.283 81.7466 444.247 77 437L79 432L76 431L76 425C72.354 434.465 70.1339 445.791 72 456L71 456L71 454L70 454L72 459L69 460C69.7358 471.453 57.8388 484.943 63 496C58.5418 496.536 59.0768 502.219 59 506L58 506L58 502L57 502L58 508L54 482L57 480L58 473C56.6971 469.091 56.8657 459.216 60 460L59 456C49.9434 467.331 45.1685 492.693 44 507L45 507L45 504L46 504L45 512L139 512L141 509L141 512L364 512L421 512C426.134 512 438.216 514.229 442.4 510.972C446.134 508.066 444.87 498.21 445.424 494C447.981 474.583 443.762 454.243 435 437L434 437L435 454L429 454L427 434L426 434L425 451L424 451L425 429L420 431L415 435L411 417L409 416L406 417L405 413L404 413L402 433L401 433L397 416L395 407L393 408L392 404L388 408L384 407L385 404L382 405L379 402L378 405L371 401L371 400L373 398L369 400L368 395L367 398L366 398L361 396L362 394L350 394C348.889 392.443 337.922 391.132 338 394L333 393L334 385L337 383L332 380L333 385L326 380L327 384L326 384L323 383L326 379L324 374L321 374L321 375L321 378L323 377L323 380L320 380L319 378L319 374L321 374L319 371z"/>
<path style="fill:#ae7562; stroke:none;" d="M349 371L350 372L349 371z"/>
<path style="fill:#d09c8a; stroke:none;" d="M350 371L351 372L350 371z"/>
<path style="fill:#ae7562; stroke:none;" d="M187 372L188 373L187 372z"/>
<path style="fill:#e2cab8; stroke:none;" d="M188 372L189 373L188 372M317 372L316 374L317 372z"/>
<path style="fill:#554246; stroke:none;" d="M318 372L319 373L318 372z"/>
<path style="fill:#ae7562; stroke:none;" d="M351 372L352 373L351 372z"/>
<path style="fill:#d09c8a; stroke:none;" d="M352 372L353 373L352 372M153 373L154 374L153 373z"/>
<path style="fill:#554246; stroke:none;" d="M158 373L159 374L158 373z"/>
<path style="fill:#ae7562; stroke:none;" d="M164 373L163 375L165 375L164 373z"/>
<path style="fill:#e2cab8; stroke:none;" d="M189 373L190 374L189 373z"/>
<path style="fill:#d09c8a; stroke:none;" d="M280 373L280 374L283 374L280 373z"/>
<path style="fill:#ae7562; stroke:none;" d="M317 373L318 374L317 373M353 373L354 374L353 373z"/>
<path style="fill:#d09c8a; stroke:none;" d="M354 373L355 374L354 373z"/>
<path style="fill:#554246; stroke:none;" d="M154.333 374.667L154.667 375.333L154.333 374.667z"/>
<path style="fill:#201523; stroke:none;" d="M187 374L188 375L187 374z"/>
<path style="fill:#d09c8a; stroke:none;" d="M245 374L246 375L245 374z"/>
<path style="fill:#ae7562; stroke:none;" d="M316 374L317 375L316 374M351 374L353 376L351 374M355 374L356 375L355 374z"/>
<path style="fill:#d09c8a; stroke:none;" d="M149 375L150 376L149 375z"/>
<path style="fill:#554246; stroke:none;" d="M152 375L153 376L152 375z"/>
<path style="fill:#ae7562; stroke:none;" d="M189 375L190 376L189 375z"/>
<path style="fill:#d09c8a; stroke:none;" d="M207 375L208 376L207 375M275 375L276 376L275 375z"/>
<path style="fill:#e2cab8; stroke:none;" d="M314 375L315 376L314 375z"/>
<path style="fill:#ae7562; stroke:none;" d="M315 375L316 376L315 375z"/>
<path style="fill:#201523; stroke:none;" d="M327 375L325 378L327 375z"/>
<path style="fill:#ae7562; stroke:none;" d="M356 375L356 376L361 378L360 381L397 394L397 393L356 375z"/>
<path style="fill:#d09c8a; stroke:none;" d="M358 375L359 376L358 375M147 376L148 377L147 376z"/>
<path style="fill:#554246; stroke:none;" d="M149.667 376.333L150.333 376.667L149.667 376.333z"/>
<path style="fill:#201523; stroke:none;" d="M186 376L187 377L186 376z"/>
<path style="fill:#ae7562; stroke:none;" d="M190 376L195 381L190 376z"/>
<path style="fill:#e2cab8; stroke:none;" d="M191 376L192 377L191 376z"/>
<path style="fill:#ae7562; stroke:none;" d="M296 376L297 377L296 376M314 376L315 377L314 376M354 376L354 377L358 378L358 377L354 376z"/>
<path style="fill:#d09c8a; stroke:none;" d="M360 376L361 377L360 376M145 377L146 378L145 377z"/>
<path style="fill:#554246; stroke:none;" d="M148 377L149 378L148 377z"/>
<path style="fill:#201523; stroke:none;" d="M183 377L184 380L185 380L185 377L183 377z"/>
<path style="fill:#e2cab8; stroke:none;" d="M192 377L193 378L192 377z"/>
<path style="fill:#d09c8a; stroke:none;" d="M208.667 377.333L209.333 377.667L208.667 377.333M293 377L294 378L293 377z"/>
<path style="fill:#554246; stroke:none;" d="M313 377L314 378L313 377z"/>
<path style="fill:#d09c8a; stroke:none;" d="M362 377L363 378L362 377M143 378L144 379L143 378z"/>
<path style="fill:#554246; stroke:none;" d="M145 378L146 379L145 378z"/>
<path style="fill:#e2cab8; stroke:none;" d="M193 378L194 379L193 378z"/>
<path style="fill:#554246; stroke:none;" d="M312 378L313 379L312 378z"/>
<path style="fill:#ae7562; stroke:none;" d="M359 378L360 379L359 378z"/>
<path style="fill:#d09c8a; stroke:none;" d="M364 378L365 379L364 378M140 379L141 380L140 379z"/>
<path style="fill:#554246; stroke:none;" d="M143 379L144 380L143 379z"/>
<path style="fill:#201523; stroke:none;" d="M189 379L190 380L189 379z"/>
<path style="fill:#e2cab8; stroke:none;" d="M194 379L195 380L194 379z"/>
<path style="fill:#554246; stroke:none;" d="M311 379L312 380L311 379M316 379L318 381L316 379z"/>
<path style="fill:#201523; stroke:none;" d="M328 379L329 380L328 379z"/>
<path style="fill:#d09c8a; stroke:none;" d="M367 379L368 380L367 379M138 380L139 381L138 380z"/>
<path style="fill:#201523; stroke:none;" d="M181 380L181 381L184 382L181 380M187 380L188 381L187 380z"/>
<path style="fill:#554246; stroke:none;" d="M310 380L311 381L310 380z"/>
<path style="fill:#201523; stroke:none;" d="M330 380L331 381L330 380M336 380L337 381L336 380z"/>
<path style="fill:#554246; stroke:none;" d="M362 380L363 381L362 380M366 380L367 381L366 380z"/>
<path style="fill:#d09c8a; stroke:none;" d="M369 380L370 381L369 380M135 381L136 382L135 381z"/>
<path style="fill:#554246; stroke:none;" d="M138 381L139 382L138 381z"/>
<path style="fill:#201523; stroke:none;" d="M185 381L186 382L185 381z"/>
<path style="fill:#554246; stroke:none;" d="M192.667 381.333L193.333 381.667L192.667 381.333z"/>
<path style="fill:#ae7562; stroke:none;" d="M195 381L196 382L195 381M308 381L309 382L308 381z"/>
<path style="fill:#d09c8a; stroke:none;" d="M371 381L372 382L371 381M133 382L134 383L133 382z"/>
<path style="fill:#554246; stroke:none;" d="M135 382L136 383L135 382z"/>
<path style="fill:#201523; stroke:none;" d="M179 382L178 384L179 382M187 382L189 384L187 382z"/>
<path style="fill:#554246; stroke:none;" d="M196 382L197 383L196 382z"/>
<path style="fill:#ae7562; stroke:none;" d="M307 382L308 383L307 382z"/>
<path style="fill:#554246; stroke:none;" d="M316 382L317 383L316 382M370 382L371 383L370 382z"/>
<path style="fill:#d09c8a; stroke:none;" d="M130 383L131 384L130 383z"/>
<path style="fill:#ae7562; stroke:none;" d="M147.667 383.333L148.333 383.667L147.667 383.333z"/>
<path style="fill:#201523; stroke:none;" d="M184 383L186 385L184 383z"/>
<path style="fill:#554246; stroke:none;" d="M197 383L198 384L197 383M306 383L307 384L306 383z"/>
<path style="fill:#d09c8a; stroke:none;" d="M375 383L376 384L375 383M127 384L128 385L127 384z"/>
<path style="fill:#554246; stroke:none;" d="M192 385L194 386L192 387L192 388L196 388L194 384L192 385z"/>
<path style="fill:#ae7562; stroke:none;" d="M199 384L200 385L199 384M304 384L305 385L304 384z"/>
<path style="fill:#554246; stroke:none;" d="M310 384L311 385L310 384z"/>
<path style="fill:#d09c8a; stroke:none;" d="M377 384L378 385L377 384M125 385L126 386L125 385z"/>
<path style="fill:#201523; stroke:none;" d="M172.333 385.667L172.667 386.333L172.333 385.667M175 385L175 387L177 385L175 385z"/>
<path style="fill:#554246; stroke:none;" d="M197.667 385.333L198.333 385.667L197.667 385.333M200 385L201 386L200 385z"/>
<path style="fill:#ae7562; stroke:none;" d="M201 385L202 386L201 385M282 385L283 386L282 385z"/>
<path style="fill:#554246; stroke:none;" d="M303 385L304 386L303 385M312 385L313 386L312 385M320 385L320 388L321 388L322 385L320 385M324 385L324 386L329 386L329 385L324 385z"/>
<path style="fill:#201523; stroke:none;" d="M335 385L335 387L337 387L337 385L335 385z"/>
<path style="fill:#d09c8a; stroke:none;" d="M379 385L380 386L379 385M123 386L124 387L123 386z"/>
<path style="fill:#201523; stroke:none;" d="M180 386L181 387L180 386z"/>
<path style="fill:#554246; stroke:none;" d="M189.667 386.333L190.333 386.667L189.667 386.333M202 386L203 387L202 386z"/>
<path style="fill:#ae7562; stroke:none;" d="M215 387L215 388L218 389L219 388L215 387z"/>
<path style="fill:#554246; stroke:none;" d="M301 386L302 387L301 386M331 386L329 387L329 388L331 386z"/>
<path style="fill:#d09c8a; stroke:none;" d="M381 386L382 387L381 386M120.667 387.333L121.333 387.667L120.667 387.333z"/>
<path style="fill:#201523; stroke:none;" d="M165 389L168 389L167 387L165 389z"/>
<path style="fill:#554246; stroke:none;" d="M203 387L204 388L203 387z"/>
<path style="fill:#ae7562; stroke:none;" d="M204 387L205 388L204 387M299 387L300 388L299 387z"/>
<path style="fill:#554246; stroke:none;" d="M316 387L317 388L316 387z"/>
<path style="fill:#d09c8a; stroke:none;" d="M383.667 387.333L384.333 387.667L383.667 387.333M118 388L119 389L118 388z"/>
<path style="fill:#201523; stroke:none;" d="M174 389L174 390L179 390L179 389L174 389z"/>
<path style="fill:#554246; stroke:none;" d="M185.333 388.667L185.667 389.333L185.333 388.667M205 388L206 389L205 388z"/>
<path style="fill:#ae7562; stroke:none;" d="M206 388L207 389L206 388M221 388L222 389L221 388M297 388L298 389L297 388z"/>
<path style="fill:#d09c8a; stroke:none;" d="M386 388L387 389L386 388M116 389L117 390L116 389z"/>
<path style="fill:#201523; stroke:none;" d="M170.667 389.333L171.333 389.667L170.667 389.333M180 389L182 391L182 389L180 389z"/>
<path style="fill:#554246; stroke:none;" d="M207 389L208 390L207 389z"/>
<path style="fill:#ae7562; stroke:none;" d="M208 389L209 390L208 389M295 389L296 390L295 389z"/>
<path style="fill:#554246; stroke:none;" d="M311 389L312 390L311 389M318 389L319 390L318 389M324 391L327 389L324 391M328 389L328 393L332 389L328 389z"/>
<path style="fill:#d09c8a; stroke:none;" d="M388 389L389 390L388 389M113 390L114 391L113 390z"/>
<path style="fill:#201523; stroke:none;" d="M160 390L160 391L163 393L164 393L160 390M188 390L187 392L188 390z"/>
<path style="fill:#554246; stroke:none;" d="M209 390L210 391L209 390z"/>
<path style="fill:#ae7562; stroke:none;" d="M210 390L211 391L210 390z"/>
<path style="fill:#554246; stroke:none;" d="M293 390L294 391L293 390M321.667 390.333L322.333 390.667L321.667 390.333z"/>
<path style="fill:#201523; stroke:none;" d="M334 390L335 391L334 390M336 390L337 391L336 390M339 390L341 392L339 390z"/>
<path style="fill:#d09c8a; stroke:none;" d="M390 390L391 391L390 390M110 391L111 392L110 391z"/>
<path style="fill:#554246; stroke:none;" d="M193 391C194.459 393.455 195.43 393.289 197 391L193 391M211 391L212 392L211 391z"/>
<path style="fill:#ae7562; stroke:none;" d="M212 391L213 392L212 391M290 391L291 392L290 391z"/>
<path style="fill:#554246; stroke:none;" d="M291 391L292 392L291 391z"/>
<path style="fill:#201523; stroke:none;" d="M345 391L346 392L345 391z"/>
<path style="fill:#d09c8a; stroke:none;" d="M393 391L394 392L393 391M108 392L109 393L108 392z"/>
<path style="fill:#554246; stroke:none;" d="M209 392L210 393L209 392M214 392L215 393L214 392z"/>
<path style="fill:#e2cab8; stroke:none;" d="M216 392L217 393L216 392z"/>
<path style="fill:#d09c8a; stroke:none;" d="M241.333 392.667L241.667 393.333L241.333 392.667M245 392L246 393L245 392z"/>
<path style="fill:#ae7562; stroke:none;" d="M287 392L288 393L287 392z"/>
<path style="fill:#554246; stroke:none;" d="M288 392L289 393L288 392M309 392L310 393L309 392M315 392L316 393L315 392M325 392L326 393L325 392z"/>
<path style="fill:#d09c8a; stroke:none;" d="M395 392L396 393L395 392M105 393L106 394L105 393z"/>
<path style="fill:#554246; stroke:none;" d="M190 393L191 396L192 396L190 393M216 393L217 394L216 393z"/>
<path style="fill:#e2cab8; stroke:none;" d="M219.667 393.333L220.333 393.667L219.667 393.333z"/>
<path style="fill:#ae7562; stroke:none;" d="M284 393L285 394L284 393z"/>
<path style="fill:#554246; stroke:none;" d="M285.667 393.333L286.333 393.667L285.667 393.333M313 393L314 394L313 393M321 393L322 394L321 393z"/>
<path style="fill:#201523; stroke:none;" d="M368 393L369 394L368 393M373 393L374 394L373 393z"/>
<path style="fill:#d09c8a; stroke:none;" d="M397 393L398 394L397 393M103 394L104 395L103 394z"/>
<path style="fill:#ae7562; stroke:none;" d="M109 394L110 395L109 394z"/>
<path style="fill:#201523; stroke:none;" d="M166 394L167 395L166 394z"/>
<path style="fill:#554246; stroke:none;" d="M197.667 394.333L198.333 394.667L197.667 394.333M218 394L219 395L218 394z"/>
<path style="fill:#ae7562; stroke:none;" d="M219 394L220 395L219 394z"/>
<path style="fill:#e2cab8; stroke:none;" d="M221 394L221 395L224 395L221 394z"/>
<path style="fill:#ae7562; stroke:none;" d="M282 394L283 395L282 394z"/>
<path style="fill:#554246; stroke:none;" d="M283 394L284 395L283 394M317 394L318 395L317 394M335 394L336 395L335 394z"/>
<path style="fill:#201523; stroke:none;" d="M364 394L365 395L364 394M371 394L372 395L371 394z"/>
<path style="fill:#ae7562; stroke:none;" d="M398.667 394.333L399.333 394.667L398.667 394.333z"/>
<path style="fill:#d09c8a; stroke:none;" d="M100 395L101 396L100 395z"/>
<path style="fill:#554246; stroke:none;" d="M193.667 395.333L194.333 395.667L193.667 395.333M221.667 395.333L222.333 395.667L221.667 395.333z"/>
<path style="fill:#ae7562; stroke:none;" d="M223 395L224 396L223 395z"/>
<path style="fill:#e2cab8; stroke:none;" d="M225.667 395.333L226.333 395.667L225.667 395.333z"/>
<path style="fill:#ae7562; stroke:none;" d="M278 395L279 396L278 395z"/>
<path style="fill:#554246; stroke:none;" d="M279 395L280 396L279 395M343 395L344 396L343 395M346 395L345 397L347 397L346 395M349.333 395.667L349.667 396.333L349.333 395.667M352 395L353 396L352 395z"/>
<path style="fill:#201523; stroke:none;" d="M376 395L377 396L376 395z"/>
<path style="fill:#ae7562; stroke:none;" d="M400 395L403 397L400 395z"/>
<path style="fill:#d09c8a; stroke:none;" d="M97.6667 396.333L98.3333 396.667L97.6667 396.333z"/>
<path style="fill:#201523; stroke:none;" d="M178.333 396.667L178.667 397.333L178.333 396.667z"/>
<path style="fill:#554246; stroke:none;" d="M201 396L201 397L204 398L201 396M225 396L226 397L225 396z"/>
<path style="fill:#ae7562; stroke:none;" d="M226.667 396.333L227.333 396.667L226.667 396.333M272 396L272 397L275 397L272 396z"/>
<path style="fill:#554246; stroke:none;" d="M275 396L276 397L275 396z"/>
<path style="fill:#201523; stroke:none;" d="M370.333 396.667L370.667 397.333L370.333 396.667z"/>
<path style="fill:#d09c8a; stroke:none;" d="M403 396L404 397L403 396M95 397L96 398L95 397z"/>
<path style="fill:#554246; stroke:none;" d="M184 397L185 398L184 397M187 397L188 398L187 397M190 397L191 398L190 397M229 397L230 398L229 397z"/>
<path style="fill:#ae7562; stroke:none;" d="M230 397L230 398L233 398L230 397M267.667 397.333L268.333 397.667L267.667 397.333z"/>
<path style="fill:#554246; stroke:none;" d="M269.667 397.333L270.333 397.667L269.667 397.333M364 397L365 398L364 397z"/>
<path style="fill:#ae7562; stroke:none;" d="M404 397L407 399L407 398L404 397z"/>
<path style="fill:#d09c8a; stroke:none;" d="M405 397L406 398L405 397M93 398L94 399L93 398z"/>
<path style="fill:#201523; stroke:none;" d="M152 398L153 399L152 398z"/>
<path style="fill:#554246; stroke:none;" d="M193 398L194 399L193 398M235 398L235 399L238 399L235 398z"/>
<path style="fill:#ae7562; stroke:none;" d="M238 398L238 399L243 399L238 398M259 398L259 399L262 399L259 398z"/>
<path style="fill:#554246; stroke:none;" d="M262 398L262 399L265 399L262 398M313 398L314 399L313 398z"/>
<path style="fill:#d09c8a; stroke:none;" d="M407 398L408 399L407 398M91 399L92 400L91 399z"/>
<path style="fill:#201523; stroke:none;" d="M150 399L151 400L150 399z"/>
<path style="fill:#554246; stroke:none;" d="M165.333 399.667L165.667 400.333L165.333 399.667M181.667 399.333L182.333 399.667L181.667 399.333M188 399L189 400L188 399M248 399L248 400L255 400L248 399M349 399L350 400L349 399M366 399L367 400L366 399z"/>
<path style="fill:#201523; stroke:none;" d="M373 399L375 401L373 399z"/>
<path style="fill:#ae7562; stroke:none;" d="M408 399L409 400L408 399z"/>
<path style="fill:#d09c8a; stroke:none;" d="M90 400L91 401L90 400z"/>
<path style="fill:#201523; stroke:none;" d="M134 400L132 401L132 402L134 400z"/>
<path style="fill:#554246; stroke:none;" d="M168 400L169 401L168 400M204 400L205 401L204 400z"/>
<path style="fill:#ae7562; stroke:none;" d="M409 400L413 403L413 402L409 400z"/>
<path style="fill:#d09c8a; stroke:none;" d="M410 400L411 401L410 400M89 401L90 402L89 401z"/>
<path style="fill:#201523; stroke:none;" d="M126 401L123 409L127 407L125 404L127 405L127 404L128 402L126 401z"/>
<path style="fill:#d09c8a; stroke:none;" d="M411 401L412 402L411 401z"/>
<path style="fill:#554246; stroke:none;" d="M168 402L173 404L173 403L168 402M196 402L197 403L196 402M370 402L371 403L370 402z"/>
<path style="fill:#201523; stroke:none;" d="M376 402L377 403L376 402M389 402L388 405L389 405L389 402M128 403L128 404L134 404L128 403M170 403L171 404L170 403z"/>
<path style="fill:#554246; stroke:none;" d="M182 403L183 404L182 403M208 403L209 404L208 403M362 403L363 404L362 403M366 403L367 404L366 403z"/>
<path style="fill:#ae7562; stroke:none;" d="M413 403L413 405L415 405L413 403M87 404L86 406L88 406L87 404z"/>
<path style="fill:#554246; stroke:none;" d="M165 404L166 405L165 404M184 404L185 405L184 404z"/>
<path style="fill:#201523; stroke:none;" d="M112 405L111 407L113 407L112 405z"/>
<path style="fill:#554246; stroke:none;" d="M366 405L367 406L366 405z"/>
<path style="fill:#201523; stroke:none;" d="M393 405L394 406L393 405z"/>
<path style="fill:#ae7562; stroke:none;" d="M415 405L416 406L415 405z"/>
<path style="fill:#d09c8a; stroke:none;" d="M84 406L72 419L84 406z"/>
<path style="fill:#ae7562; stroke:none;" d="M85 406L71 422C76.2908 420.643 85.4788 411.698 85 406z"/>
<path style="fill:#554246; stroke:none;" d="M117 406L119 410L120 410L117 406M124 406L125 407L124 406z"/>
<path style="fill:#201523; stroke:none;" d="M128 406L129 407L128 406z"/>
<path style="fill:#554246; stroke:none;" d="M180 406L181 407L180 406M373 406L374 407L373 406M375 406L376 407L375 406z"/>
<path style="fill:#ae7562; stroke:none;" d="M416 406L421 415L425 416L416 406z"/>
<path style="fill:#554246; stroke:none;" d="M184 407L185 408L184 407M146 408L147 409L146 408M171 408L172 409L171 408M391 408L392 409L391 408M114 409L116 412L117 411L114 409M141 409L142 410L141 409M178 409L179 410L178 409M371 409L372 410L371 409z"/>
<path style="fill:#201523; stroke:none;" d="M124.667 410.333L125.333 410.667L124.667 410.333z"/>
<path style="fill:#554246; stroke:none;" d="M389 410L391 412L391 410L389 410M118.667 411.333L119.333 411.667L118.667 411.333M372 411L373 412L372 411z"/>
<path style="fill:#201523; stroke:none;" d="M405 411L406 412L405 411M99.3333 412.667L99.6667 413.333L99.3333 412.667z"/>
<path style="fill:#554246; stroke:none;" d="M108 412L108 413L111 413L108 412M112 412L113 413L112 412M195 412L196 413L195 412M197 412L198 413L197 412M368 412L369 413L368 412z"/>
<path style="fill:#201523; stroke:none;" d="M97 413L98 414L97 413z"/>
<path style="fill:#554246; stroke:none;" d="M114 413L112 416L114 413z"/>
<path style="fill:#201523; stroke:none;" d="M122 413L123 414L122 413z"/>
<path style="fill:#554246; stroke:none;" d="M375 413L376 414L375 413z"/>
<path style="fill:#d09c8a; stroke:none;" d="M423 413L424 414L423 413z"/>
<path style="fill:#554246; stroke:none;" d="M166 418L167 418L169 416L172 417L172 416L170 414L166 418M372 414L373 415L372 414z"/>
<path style="fill:#201523; stroke:none;" d="M408 414L410 416L408 414z"/>
<path style="fill:#d09c8a; stroke:none;" d="M424 414L425 415L424 414z"/>
<path style="fill:#201523; stroke:none;" d="M105.667 416.333L106.333 416.667L105.667 416.333z"/>
<path style="fill:#ae7562; stroke:none;" d="M425 416L428 420L425 416z"/>
<path style="fill:#201523; stroke:none;" d="M128.333 417.667L128.667 418.333L128.333 417.667z"/>
<path style="fill:#554246; stroke:none;" d="M376 417L377 418L376 417M111 418L112 419L111 418M163 418L164 419L163 418z"/>
<path style="fill:#d09c8a; stroke:none;" d="M427 418L428 419L427 418z"/>
<path style="fill:#554246; stroke:none;" d="M73 419L74 420L73 419z"/>
<path style="fill:#201523; stroke:none;" d="M104 419L105 420L104 419z"/>
<path style="fill:#554246; stroke:none;" d="M108 419L108 421L110 419L108 419M168 419L166 421L166 422L168 419M171 419L172 420L171 419z"/>
<path style="fill:#d09c8a; stroke:none;" d="M71 420L72 421L71 420z"/>
<path style="fill:#554246; stroke:none;" d="M164.333 420.667L164.667 421.333L164.333 420.667M396 420L397 421L396 420M410 420L411 421L410 420z"/>
<path style="fill:#ae7562; stroke:none;" d="M428 420L429 421L428 420z"/>
<path style="fill:#554246; stroke:none;" d="M157 421L159 423L159 421L157 421z"/>
<path style="fill:#ae7562; stroke:none;" d="M429 421L430 422L429 421z"/>
<path style="fill:#554246; stroke:none;" d="M155 422L155 425L156 425L155 422M160 422L161 423L160 422z"/>
<path style="fill:#ae7562; stroke:none;" d="M430 422L431 423L430 422z"/>
<path style="fill:#d09c8a; stroke:none;" d="M70 423L71 424L70 423z"/>
<path style="fill:#554246; stroke:none;" d="M168 424L168 425L171 425L168 424M172 423L173 424L172 423M181 423L182 424L181 423z"/>
<path style="fill:#d09c8a; stroke:none;" d="M431 423L432 424L431 423z"/>
<path style="fill:#ae7562; stroke:none;" d="M70 424L71 425L70 424z"/>
<path style="fill:#554246; stroke:none;" d="M157 424L158 425L157 424M161 424L162 425L161 424M166 424L167 425L166 424M378 424L379 425L378 424M398 424L399 425L398 424z"/>
<path style="fill:#ae7562; stroke:none;" d="M431 424L432 425L431 424z"/>
<path style="fill:#d09c8a; stroke:none;" d="M69 425L70 426L69 425z"/>
<path style="fill:#554246; stroke:none;" d="M153.333 425.667L153.667 426.333L153.333 425.667z"/>
<path style="fill:#ae7562; stroke:none;" d="M432 425L433 426L432 425M69 426L70 427L69 426M72 426L70 436L71 436L72 426z"/>
<path style="fill:#554246; stroke:none;" d="M163 426L164 427L163 426M378 426L379 427L378 426z"/>
<path style="fill:#201523; stroke:none;" d="M415 426L415 427L418 428L416 431L420 431L415 426z"/>
<path style="fill:#d09c8a; stroke:none;" d="M68 427L69 428L68 427z"/>
<path style="fill:#554246; stroke:none;" d="M160 427L160 430L161 430L162 427L160 427M171 427L167 431L172 428L171 427z"/>
<path style="fill:#201523; stroke:none;" d="M422.667 427.333L423.333 427.667L422.667 427.333z"/>
<path style="fill:#ae7562; stroke:none;" d="M433 427L434 428L433 427M68 428L69 429L68 428z"/>
<path style="fill:#554246; stroke:none;" d="M151 428L151 429L155 429L151 428M397 428L398 429L397 428z"/>
<path style="fill:#d09c8a; stroke:none;" d="M67 429L68 430L67 429z"/>
<path style="fill:#554246; stroke:none;" d="M151 434L153 436L153 437L151 440L151 441L155 440L153 438C155.176 436.642 156.94 435.199 155 433L155 432L158 429L151 434z"/>
<path style="fill:#ae7562; stroke:none;" d="M434 429L435 430L434 429M67 430L68 431L67 430z"/>
<path style="fill:#201523; stroke:none;" d="M114 431L115 432L114 431z"/>
<path style="fill:#554246; stroke:none;" d="M150.667 431.333L151.333 431.667L150.667 431.333M159 431L159 432L161 434L162 434L159 431z"/>
<path style="fill:#201523; stroke:none;" d="M426 431L428 434L426 431M429 431L430 432L429 431z"/>
<path style="fill:#ae7562; stroke:none;" d="M435 431L436 432L435 431M66.3333 432.667L66.6667 433.333L66.3333 432.667z"/>
<path style="fill:#554246; stroke:none;" d="M378 432L379 433L378 432z"/>
<path style="fill:#201523; stroke:none;" d="M111 433L112 434L111 433M154 433L152 434L152 435L154 433z"/>
<path style="fill:#554246; stroke:none;" d="M163 433L164 434L163 433z"/>
<path style="fill:#201523; stroke:none;" d="M430 433L431 434L430 433z"/>
<path style="fill:#d09c8a; stroke:none;" d="M436 433L437 434L436 433z"/>
<path style="fill:#ae7562; stroke:none;" d="M65 434L66 435L65 434z"/>
<path style="fill:#554246; stroke:none;" d="M378.667 434.333L379.333 434.667L378.667 434.333M400 434L400 438L401 438L400 434M147 435L151 437L151 436L147 435M158 435L157 437L158 435z"/>
<path style="fill:#201523; stroke:none;" d="M435 435L436 436L435 435z"/>
<path style="fill:#d09c8a; stroke:none;" d="M64 436L65 437L64 436z"/>
<path style="fill:#201523; stroke:none;" d="M108 436L109 437L108 436z"/>
<path style="fill:#ae7562; stroke:none;" d="M437 436L438 437L437 436M64 437L65 438L64 437M66 437L67 438L66 437M70 437L71 438L70 437z"/>
<path style="fill:#554246; stroke:none;" d="M102 437L103 438L102 437M73 438L74 439L73 438M145 438L147 440L145 438M417 438L418 439L417 438z"/>
<path style="fill:#201523; stroke:none;" d="M423 438L424 439L423 438z"/>
<path style="fill:#d09c8a; stroke:none;" d="M438 438L439 439L438 438z"/>
<path style="fill:#ae7562; stroke:none;" d="M63 439L64 440L63 439z"/>
<path style="fill:#554246; stroke:none;" d="M399 439L399 449L400 449L399 439z"/>
<path style="fill:#ae7562; stroke:none;" d="M438 439L439 440L438 439z"/>
<path style="fill:#201523; stroke:none;" d="M64 440L65 441L64 440z"/>
<path style="fill:#554246; stroke:none;" d="M141 440L142 441L141 440z"/>
<path style="fill:#201523; stroke:none;" d="M424 440L425 441L424 440z"/>
<path style="fill:#d09c8a; stroke:none;" d="M62 441L63 442L62 441z"/>
<path style="fill:#554246; stroke:none;" d="M145 441L147 443L145 441M148 441L149 442L148 441M417 441L419 443L419 441L417 441z"/>
<path style="fill:#d09c8a; stroke:none;" d="M439 441L440 442L439 441z"/>
<path style="fill:#ae7562; stroke:none;" d="M62 442L63 443L62 442z"/>
<path style="fill:#201523; stroke:none;" d="M63.3333 442.667L63.6667 443.333L63.3333 442.667z"/>
<path style="fill:#554246; stroke:none;" d="M151 442L152 443L151 442z"/>
<path style="fill:#ae7562; stroke:none;" d="M439 442L440 443L439 442z"/>
<path style="fill:#554246; stroke:none;" d="M143 443L144 444L143 443M149 443L150 444L149 443M153 443L154 444L153 443z"/>
<path style="fill:#201523; stroke:none;" d="M432.333 443.667L432.667 444.333L432.333 443.667z"/>
<path style="fill:#554246; stroke:none;" d="M439 443L441 452L442 452L439 443z"/>
<path style="fill:#ae7562; stroke:none;" d="M61 444L62 445L61 444z"/>
<path style="fill:#554246; stroke:none;" d="M140 444L139 447L133 451L139 451L139 452L136 454C138.666 453.005 142.699 450.033 138 449L138 448L147 449L146 446L140 444z"/>
<path style="fill:#d09c8a; stroke:none;" d="M440 444L441 445L440 444z"/>
<path style="fill:#201523; stroke:none;" d="M62 445L63 446L62 445z"/>
<path style="fill:#554246; stroke:none;" d="M133 445L134 446L133 445M135 445L136 446L135 445z"/>
<path style="fill:#ae7562; stroke:none;" d="M440 445L441 446L440 445z"/>
<path style="fill:#d09c8a; stroke:none;" d="M60 446L61 447L60 446z"/>
<path style="fill:#ae7562; stroke:none;" d="M60 447L61 448L60 447z"/>
<path style="fill:#201523; stroke:none;" d="M432 447L434 452L432 447M61.3333 448.667L61.6667 449.333L61.3333 448.667z"/>
<path style="fill:#d09c8a; stroke:none;" d="M441 448L442 449L441 448M59 449L60 450L59 449z"/>
<path style="fill:#554246; stroke:none;" d="M131 449L132 456L135 455L131 449z"/>
<path style="fill:#201523; stroke:none;" d="M135 449L135 450L138 450L135 449z"/>
<path style="fill:#554246; stroke:none;" d="M142 449L143 450L142 449z"/>
<path style="fill:#ae7562; stroke:none;" d="M441 449L442 450L441 449z"/>
<path style="fill:#201523; stroke:none;" d="M60 450L59 455L60 450z"/>
<path style="fill:#554246; stroke:none;" d="M120 450L121 451L120 450M420 450L421 451L420 450M398 451L399 452L398 451z"/>
<path style="fill:#ae7562; stroke:none;" d="M58 452L59 453L58 452z"/>
<path style="fill:#201523; stroke:none;" d="M131 452L133 454L131 452z"/>
<path style="fill:#554246; stroke:none;" d="M141 452L142 453L141 452M423 452L424 453L423 452z"/>
<path style="fill:#ae7562; stroke:none;" d="M442 452L443 453L442 452z"/>
<path style="fill:#554246; stroke:none;" d="M73 453L74 454L73 453M442 453L442 457L443 457L442 453z"/>
<path style="fill:#d09c8a; stroke:none;" d="M57 454L58 455L57 454z"/>
<path style="fill:#554246; stroke:none;" d="M423 454L423 459L424 459L423 454z"/>
<path style="fill:#ae7562; stroke:none;" d="M57 455L58 456L57 455z"/>
<path style="fill:#554246; stroke:none;" d="M128 455L129 456L128 455M130 455L131 456L130 455M430 455L431 456L430 455M432 455L432 456L435 456L432 455z"/>
<path style="fill:#d09c8a; stroke:none;" d="M443.333 455.667L443.667 456.333L443.333 455.667z"/>
<path style="fill:#554246; stroke:none;" d="M397 456L398 457L397 456z"/>
<path style="fill:#d09c8a; stroke:none;" d="M56 457L57 458L56 457z"/>
<path style="fill:#554246; stroke:none;" d="M98 457L99 458L98 457M126 457L124 462L125 462L126 457M129 457L130 458L129 457z"/>
<path style="fill:#ae7562; stroke:none;" d="M443 457L444 458L443 457M56 458L57 459L56 458z"/>
<path style="fill:#554246; stroke:none;" d="M123 458L124 459L123 458M443.333 458.667L443.667 459.333L443.333 458.667M56 459L57 460L56 459M128 459L129 460L128 459z"/>
<path style="fill:#d09c8a; stroke:none;" d="M444.333 459.667L444.667 460.333L444.333 459.667M55 460L56 461L55 460z"/>
<path style="fill:#554246; stroke:none;" d="M122 460L123 461L122 460M55 461L55 464L56 464L55 461M422 461L421 463L422 461z"/>
<path style="fill:#ae7562; stroke:none;" d="M444 461L445 462L444 461z"/>
<path style="fill:#554246; stroke:none;" d="M121 462L123 464L121 462M444 462L444 466L445 466L444 462z"/>
<path style="fill:#d09c8a; stroke:none;" d="M445 463L452.129 488.985L454 512C460.572 512 482.674 515.64 484 507L488 509C486.346 513.962 506.285 512.575 507 509L512 510L512 504C497.659 501.276 502.918 484.116 499.065 472.866C498.472 471.134 492.947 460.467 492 466C488.599 466.708 488.002 468.638 488 472L485 471L487 469C473.676 458.796 460.011 464.439 445 463M54 463L55 464L54 463z"/>
<path style="fill:#ae7562; stroke:none;" d="M54 464L55 465L54 464z"/>
<path style="fill:#554246; stroke:none;" d="M117 464L115 466L107 477L120 468L120 464L117 464M54 465L55 466L54 465M123 465L124 466L123 465M421.333 465.667L421.667 466.333L421.333 465.667z"/>
<path style="fill:#ae7562; stroke:none;" d="M53.3333 466.667L53.6667 467.333L53.3333 466.667z"/>
<path style="fill:#201523; stroke:none;" d="M61 467L62 468L61 467z"/>
<path style="fill:#ae7562; stroke:none;" d="M445 467L445 470L446 470L445 467z"/>
<path style="fill:#d09c8a; stroke:none;" d="M487 467L488 468L487 467z"/>
<path style="fill:#554246; stroke:none;" d="M53 468L54 469L53 468M106 468L107 469L106 468M420 468L421 469L420 468z"/>
<path style="fill:#d09c8a; stroke:none;" d="M52 469L53 470L52 469z"/>
<path style="fill:#ae7562; stroke:none;" d="M52 470L53 471L52 470z"/>
<path style="fill:#554246; stroke:none;" d="M80 470L81 479L82 479L80 470M445 470L445 473L446 473L445 470M52.3333 471.667L52.6667 472.333L52.3333 471.667z"/>
<path style="fill:#d09c8a; stroke:none;" d="M51 472L52 473L51 472z"/>
<path style="fill:#554246; stroke:none;" d="M435 472L436 473L435 472z"/>
<path style="fill:#ae7562; stroke:none;" d="M51 473L52 474L51 473z"/>
<path style="fill:#e2cab8; stroke:none;" d="M487 473L488 474L487 473z"/>
<path style="fill:#554246; stroke:none;" d="M51 474L52 475L51 474z"/>
<path style="fill:#ae7562; stroke:none;" d="M446.333 474.667L446.667 475.333L446.333 474.667z"/>
<path style="fill:#e2cab8; stroke:none;" d="M461 474L461 476L459 475C456.201 481.167 460.778 484.008 460.833 490C460.885 495.63 454.717 501.594 455.75 506.889C456.661 511.563 470.966 511.518 474 509.5C481.139 504.752 473.199 487.121 481 486L481 475L461 474z"/>
<path style="fill:#ae7562; stroke:none;" d="M50 475L50 478L51 478L50 475z"/>
<path style="fill:#e2cab8; stroke:none;" d="M450 475L451 476L450 475M453 475L454 476L453 475M455 475L456 476L455 475z"/>
<path style="fill:#554246; stroke:none;" d="M418 476L419 477L418 476M446 476L443 512L446 511L446 501L447 501L449 508L448 505L449 505L452 511L450 510L450 511L454 512L446 476z"/>
<path style="fill:#e2cab8; stroke:none;" d="M456 477L457 478L456 477z"/>
<path style="fill:#554246; stroke:none;" d="M50.3333 478.667L50.6667 479.333L50.3333 478.667z"/>
<path style="fill:#201523; stroke:none;" d="M63 478L64 479L63 478z"/>
<path style="fill:#ae7562; stroke:none;" d="M447.333 478.667L447.667 479.333L447.333 478.667z"/>
<path style="fill:#d09c8a; stroke:none;" d="M49 479L50 480L49 479z"/>
<path style="fill:#ae7562; stroke:none;" d="M49 480L50 481L49 480z"/>
<path style="fill:#554246; stroke:none;" d="M49.3333 481.667L49.6667 482.333L49.3333 481.667z"/>
<path style="fill:#d09c8a; stroke:none;" d="M48 482L49 483L48 482z"/>
<path style="fill:#ae7562; stroke:none;" d="M448 482L449 483L448 482M48 483L49 484L48 483z"/>
<path style="fill:#554246; stroke:none;" d="M92.3333 483.667L92.6667 484.333L92.3333 483.667M48.3333 484.667L48.6667 485.333L48.3333 484.667z"/>
<path style="fill:#ae7562; stroke:none;" d="M449 484L452 504L453 504C452.996 497.287 454.395 488.76 449 484z"/>
<path style="fill:#d09c8a; stroke:none;" d="M47.3333 485.667L47.6667 486.333L47.3333 485.667z"/>
<path style="fill:#ae7562; stroke:none;" d="M47 487L48 488L47 487z"/>
<path style="fill:#554246; stroke:none;" d="M47.3333 488.667L47.6667 489.333L47.3333 488.667z"/>
<path style="fill:#d09c8a; stroke:none;" d="M46 490L47 491L46 490z"/>
<path style="fill:#201523; stroke:none;" d="M448 490L449 491L448 490z"/>
<path style="fill:#ae7562; stroke:none;" d="M46 491L47 492L46 491z"/>
<path style="fill:#201523; stroke:none;" d="M56 491L57 492L56 491z"/>
<path style="fill:#554246; stroke:none;" d="M158 491L155 494L155 495L158 491M46.3333 492.667L46.6667 493.333L46.3333 492.667M63 492L64 493L63 492z"/>
<path style="fill:#ae7562; stroke:none;" d="M453 492L454 493L453 492z"/>
<path style="fill:#d09c8a; stroke:none;" d="M45 493L46 494L45 493z"/>
<path style="fill:#ae7562; stroke:none;" d="M45.3333 494.667L45.6667 495.333L45.3333 494.667z"/>
<path style="fill:#201523; stroke:none;" d="M449.333 494.667L449.667 495.333L449.333 494.667z"/>
<path style="fill:#ae7562; stroke:none;" d="M453 494L454 495L453 494z"/>
<path style="fill:#554246; stroke:none;" d="M45 496L45 499L46 499L45 496z"/>
<path style="fill:#201523; stroke:none;" d="M57 496L58 497L57 496z"/>
<path style="fill:#554246; stroke:none;" d="M152 496L141 509L142 510L145 509L147 504L150 505L150 501L155 498L152 496z"/>
<path style="fill:#201523; stroke:none;" d="M449 497L449 504L450 504L449 497z"/>
<path style="fill:#d09c8a; stroke:none;" d="M44 498L45 499L44 498z"/>
<path style="fill:#554246; stroke:none;" d="M47 498L48 499L47 498M49 498L50 499L49 498z"/>
<path style="fill:#201523; stroke:none;" d="M57.6667 498.333L58.3333 498.667L57.6667 498.333M446.333 498.667L446.667 499.333L446.333 498.667z"/>
<path style="fill:#ae7562; stroke:none;" d="M44.3333 499.667L44.6667 500.333L44.3333 499.667z"/>
<path style="fill:#554246; stroke:none;" d="M61.3333 499.667L61.6667 500.333L61.3333 499.667z"/>
<path style="fill:#201523; stroke:none;" d="M57 500L58 501L57 500z"/>
<path style="fill:#554246; stroke:none;" d="M44.3333 501.667L44.6667 502.333L44.3333 501.667z"/>
<path style="fill:#201523; stroke:none;" d="M446 501L445 512L450 512L452 511L449 505L448 505L449 508L446 501z"/>
<path style="fill:#d09c8a; stroke:none;" d="M43 502L44 503L43 502z"/>
<path style="fill:#554246; stroke:none;" d="M61 502L62 503L61 502z"/>
<path style="fill:#ae7562; stroke:none;" d="M43.3333 503.667L43.6667 504.333L43.3333 503.667z"/>
<path style="fill:#554246; stroke:none;" d="M45 504L45 507L44 507L44 505L43 505L44 512L45 512L45 504z"/>
<path style="fill:#ae7562; stroke:none;" d="M485 505L487 508L485 505z"/>
<path style="fill:#d09c8a; stroke:none;" d="M42.3333 506.667L42.6667 507.333L42.3333 506.667z"/>
<path style="fill:#554246; stroke:none;" d="M60 506L58 510L61 511L60 506z"/>
<path style="fill:#ae7562; stroke:none;" d="M484 507L481 512L488 512L488 509L484 507M42 508L43 509L42 508z"/>
<path style="fill:#201523; stroke:none;" d="M43 508L43 512L44 512L43 508z"/>
<path style="fill:#ae7562; stroke:none;" d="M453 508L453 511L454 511L453 508z"/>
<path style="fill:#554246; stroke:none;" d="M42 509L42 512L43 512L42 509M140 509L139 512C141.158 511.022 141.501 510.812 140 509z"/>
<path style="fill:#ae7562; stroke:none;" d="M507 509L503 511L503 512L512 512L511 509L507 509z"/>
<path style="fill:#554246; stroke:none;" d="M56 510L57 511L56 510z"/>
<path style="fill:#d09c8a; stroke:none;" d="M41 511L42 512L41 511z"/>
<path style="fill:#554246; stroke:none;" d="M137 511L138 512L137 511M447 511L448 512L447 511z"/>
</svg>
