<svg id="Layer_1" data-name="Layer 1" xmlns="http://www.w3.org/2000/svg" viewBox="0 0 792.5 792.5"><defs><style>.cls-1{fill:#dd2a7b;stroke:#36496d;stroke-miterlimit:10;stroke-width:25px;}.cls-2{fill:#fdd835;}.cls-3{fill:#ffee58;}.cls-4,.cls-5{fill:#f4b400;}.cls-5{stroke:#f4b400;stroke-miterlimit:62.5;}</style></defs><g id="Layer_2" data-name="Layer 2"><path class="cls-1" d="M548.77,209.86c-55.16,1.69-55.14,81.05,0,82.73C603.94,290.9,603.92,211.54,548.77,209.86Z" transform="translate(-7.5)"/><path class="cls-1" d="M364.76,257.75c-97.76,0-177,79.46-177,177.49,9.33,235.43,344.75,235.36,354,0C541.78,337.21,462.52,257.75,364.76,257.75Zm0,292.7c-63.45,0-114.9-51.59-114.9-115.21,6-152.82,223.78-152.79,229.82,0C479.67,498.87,428.22,550.45,364.76,550.45Z" transform="translate(-7.5)"/><path class="cls-1" d="M707.41,293.11c-2.56-121-79.52-198-200.52-200.52-29.06-2.8-255.18-2.85-284.26,0-121,2.56-198,79.52-200.51,200.52-2.8,29-2.86,255.21,0,284.26C24.38,698,102,775.63,222.63,777.88c29.06,2.83,255.18,2.83,284.26,0,36.69-1.68,61.75-7.5,83.68-16,76.84-30.69,114.38-99,116.84-184.49C710.21,548.3,710.26,322.18,707.41,293.11ZM504.06,715.83c-28.59,2.73-250,2.77-278.6,0-33.6-1.53-51.86-7.15-64-11.87-104.87-48.64-72.35-147-77.3-282,.11-31.36-.06-94.61,0-126,4.19-93.5,48.23-136.78,141.3-141.3,28.63-2.73,250-2.77,278.6,0,93.52,4.19,136.77,48.23,141.3,141.3,1.85,22.35,3.19,144.34,0,206.08C648.81,618,643.52,709,504.06,715.83Z" transform="translate(-7.5)"/></g><path class="cls-2" d="M797,109.57l-27.79-8.95c-17.77-5.87-28.18-20.25-33.06-38.31L723.94,2.75A3.35,3.35,0,0,0,720.45,0,3.69,3.69,0,0,0,717,2.75L704.73,62.33c-4.9,18.06-15.29,32.44-33.06,38.31l-27.79,9a4.3,4.3,0,0,0-.08,8.16l28,9.63c17.71,5.89,28,20.25,32.94,38.24L717,224.51c.32,1.18,1,3.29,3.49,3.29s3.17-2.11,3.49-3.29l12.25-58.89c4.9-18,15.23-32.37,32.94-38.24l28-9.63a4.33,4.33,0,0,0-.12-8.18Z" transform="translate(-7.5)"/><path class="cls-3" d="M799.65,112.07a4.22,4.22,0,0,0-2.63-2.5l-27.79-8.95c-17.77-5.87-28.18-20.25-33.06-38.31L723.94,2.75A4.05,4.05,0,0,0,722.38.48l4,59.77c2.94,27.28,5.45,40.13,27.23,43.88l46.09,7.94Z" transform="translate(-7.5)"/><path class="cls-4" d="M799.71,115.18l-48.19,11c-17,4.3-26.32,14.14-26.32,39.86l-4.73,61.71c1.62-.16,2.93-1,3.49-3.29l12.25-58.89c4.9-18,15.23-32.37,32.94-38.24l28-9.63a4.29,4.29,0,0,0,2.57-2.57Z" transform="translate(-7.5)"/><path class="cls-2" d="M637.9,161.39c-16.61-5.49-18.13-11.67-20.92-22.1l-7-24.41c-.42-1.58-4.53-1.58-5,0l-4.72,22.56c-2.82,10.39-8.8,18.64-19,22l-16.27,7.06a2.47,2.47,0,0,0,0,4.69L581.4,177c10.17,3.37,16.11,11.63,19,22l4.72,21.58c.44,1.58,4.53,1.58,4.95,0l5.54-21.48c2.82-10.41,7.12-18.69,20.94-22.08l15.4-5.8a2.48,2.48,0,0,0,0-4.71l-14-5.1Z" transform="translate(-7.5)"/><path class="cls-3" d="M611.34,138.93c1.69,15.68,2.55,20,15.25,23.28l26.47,5.16a2.31,2.31,0,0,0-1.22-.86l-14-5.12c-14.58-5-18.61-11.33-21.34-24a190.71,190.71,0,0,0-5.64-21c-1-2.73-2.48-2.59-2.48-2.59l2.92,25.11Z" transform="translate(-7.5)"/><path class="cls-4" d="M611.81,193.66c0-14.78,8.08-22.1,20.93-22.1l20-.82a6.09,6.09,0,0,1-3.17,2l-13,4.24c-11.06,4.45-16.11,6.69-19.54,21.82,0,0-4.43,17.61-5.27,19.47-1.15,2.59-2.53,3.13-2.53,3.13l2.65-27.76Z" transform="translate(-7.5)"/><path class="cls-5" d="M673.66,44.38a1.2,1.2,0,0,0-.06-2.3l-15.4-4.15a9.52,9.52,0,0,1-6.66-6.58l-6.06-25a1.2,1.2,0,0,0-2.33,0l-5.71,24.93A9.43,9.43,0,0,1,630.66,38l-15.3,4a1.21,1.21,0,0,0-.1,2.3l16.14,5.58a9.55,9.55,0,0,1,6,6.28l5.77,23.12a1.19,1.19,0,0,0,2.31,0l6-23.2a9.55,9.55,0,0,1,6.07-6.24l16.15-5.42Z" transform="translate(-7.5)"/></svg>