<svg xmlns="http://www.w3.org/2000/svg" viewBox="0 0 951.59 163.17"><defs><style>.cls-1{fill:#fff;}</style></defs><g id="Layer_2" data-name="Layer 2"><g id="Layer_1-2" data-name="Layer 1"><path class="cls-1" d="M15.54,190.92V31.08h66q2.34,0,6,.17a51.89,51.89,0,0,1,6.77.72q13.88,2.1,22.92,9.21A42.82,42.82,0,0,1,130.7,59.11a63.47,63.47,0,0,1,4.39,24,62.47,62.47,0,0,1-4.44,23.92A43.35,43.35,0,0,1,117.16,125q-9,7.1-22.81,9.21-3.1.45-6.83.66t-5.94.23H42.29v55.83Zm26.75-80.81H80.48c1.48,0,3.14-.07,5-.22a26,26,0,0,0,5.11-.89,20.47,20.47,0,0,0,10.49-5.88,24.66,24.66,0,0,0,5.43-9.55,35.72,35.72,0,0,0,1.61-10.43,36.32,36.32,0,0,0-1.61-10.49,24.56,24.56,0,0,0-5.43-9.6,20.4,20.4,0,0,0-10.49-5.88,23.41,23.41,0,0,0-5.11-.84c-1.85-.11-3.51-.16-5-.16H42.29Z" transform="translate(-15.54 -31.08)"/><path class="cls-1" d="M157.29,190.92V31.08h66q2.32,0,6,.17a51.7,51.7,0,0,1,6.77.72Q250,34.07,259,41.18a42.9,42.9,0,0,1,13.43,17.93,63.47,63.47,0,0,1,4.38,24q0,19.53-9.88,33.58t-30.3,17.37l-11.43,1H184v55.83ZM184,110.11h38.18c1.48,0,3.14-.07,5-.22a25.88,25.88,0,0,0,5.11-.89,20.43,20.43,0,0,0,10.49-5.88,24.68,24.68,0,0,0,5.44-9.55,36.06,36.06,0,0,0,1.61-10.43,36.66,36.66,0,0,0-1.61-10.49,24.58,24.58,0,0,0-5.44-9.6,20.36,20.36,0,0,0-10.49-5.88,23.31,23.31,0,0,0-5.11-.84c-1.85-.11-3.51-.16-5-.16H184Zm65,80.81-31.52-65,27.19-6,34.63,71Z" transform="translate(-15.54 -31.08)"/><path class="cls-1" d="M292.7,190.92,343.1,31.08h39.18l50.39,159.84H405.15L359.41,47.51h6L320.23,190.92Zm28.09-34.63v-25H404.7v25Z" transform="translate(-15.54 -31.08)"/><path class="cls-1" d="M452.65,190.92V31.08h27.08l74.15,112.67V31.08H581V190.92H553.88L479.73,78.25V190.92Z" transform="translate(-15.54 -31.08)"/><path class="cls-1" d="M644,194.25q-18.32,0-30.47-9.55T596.5,159l26.42-6.33A19.38,19.38,0,0,0,630,164.28a19.83,19.83,0,0,0,13,4.88,23,23,0,0,0,9.88-2.49,16,16,0,0,0,7.77-8,24.41,24.41,0,0,0,1.83-8.49q.28-4.94.28-11.49V31.08h27.08V138.64q0,7.44-.05,13a53.5,53.5,0,0,1-1.11,10.55,33.59,33.59,0,0,1-4.16,10.15,40.76,40.76,0,0,1-17.1,16.6A51.67,51.67,0,0,1,644,194.25Z" transform="translate(-15.54 -31.08)"/><path class="cls-1" d="M707.62,190.92,758,31.08h39.18l50.4,159.84H820.06L774.33,47.51h6L735.14,190.92Zm28.08-34.63v-25h83.91v25Z" transform="translate(-15.54 -31.08)"/><path class="cls-1" d="M869.78,190.92V31.08h26.75V165.83h70.6v25.09Z" transform="translate(-15.54 -31.08)"/></g></g></svg>