<svg id="Layer_1" data-name="Layer 1" xmlns="http://www.w3.org/2000/svg" viewBox="0 0 800.4 788.52"><defs><style>.cls-1{fill:#fffc00;}.cls-2{fill:#36496d;}.cls-3{fill:#fff;}</style></defs><g id="Layer_2" data-name="Layer 2"><path class="cls-1" d="M399.84,780.26c-59.58-.36-90.1-18.19-119.62-35.43-10.57-6.17-21.49-12.55-33.74-18.05-14.87-5.79-30.29-6.28-46.61-6.81-27.11-.87-57.84-1.86-80.48-32.18l-.15-.2-.14-.21a68.55,68.55,0,0,1-8.2-16.26c-.38-1-.86-2.28-1.24-3.12a137,137,0,0,0-16.1-5.82c-10.49-3.33-22.38-7.09-37.58-15.94a81.48,81.48,0,0,1-34.51-33.7c-8.62-16.23-10-33.3-3.91-48.12,8.65-23.22,27-32.43,43.24-40.56,2.5-1.25,5.09-2.55,7.57-3.86,40.75-22.23,69.6-50.67,85.77-84.57-4.32-2.86-8.91-5.84-13.37-8.74-6.91-4.49-13.44-8.73-18.57-12.22-17.82-12-31-27.31-38.19-44.27-7.87-18.7-8.18-39-.89-58.66,10.38-29.85,40.94-49.89,76.1-49.89q3.6,0,7.16.29c.16-72.36,18.84-128.41,55.63-166.8,39.92-47.23,107.15-75.41,180-75.41,45.32,0,87.5,11,122,31.8l.14.08c67.71,41.88,99.89,93.62,107.58,173l0,.15c1,11.86,1.61,24.35,1.76,37.3q3.93-.36,7.89-.36c34.78,0,65.18,20.11,75.65,50,10.2,28.9,5.82,55.3-13,78.45-14.43,17.71-34.92,31.19-58.29,45.53,1.39,3.63,5.34,9.74,7.43,13,1.7,2.63,3.46,5.34,4.95,7.95,17.54,25.52,43,47.25,75.76,64.62,1.71.88,3.44,1.74,5.16,2.6,16.35,8.18,34.88,17.44,43.49,40.71,13.11,32.15-9.6,67.33-38.37,81.77-15.07,8.75-27,12.6-37.6,16a164.56,164.56,0,0,0-16.25,5.85c-.39.86-.86,2.11-1.24,3.1a75.38,75.38,0,0,1-5.61,12.18l-.17.29L683,684c-22.09,33.88-54.37,35-82.85,36-15.69.53-31.9,1.09-46.71,6.8-12,5.45-22.82,11.74-33.26,17.82-29.74,17.33-60.5,35.26-120.18,35.67h-.18Z" transform="translate(0.2 -5.73)"/><path class="cls-2" d="M402,33.73c40.92,0,81.49,9.73,114.75,29.79,57.85,35.78,93.06,80.31,101,162.43a520.26,520.26,0,0,1,1.67,52.91c1.52-.36,3.05-.73,4.65-1.09a72.47,72.47,0,0,1,17.28-2.08c27.21,0,53.48,15.06,62.44,40.66,19.16,54.28-25.15,82.79-67.44,108.65-13.52,8.39,2.95,26.74,9.81,39,18.89,27.69,46.22,51.09,81.17,69.62,17,8.7,34.64,15.58,42.08,36,9.81,23.65-7.69,52.39-32,64.36-23.4,13.68-38.44,14.34-56,22.83-4.93,4.29-4.86,10.61-10.09,19.55-29.14,44.7-78,19.78-123.26,37.5-47.08,21.24-71.22,51.87-148.1,52.4-77.13-.47-100.69-31.22-148-52.4-44.34-17.45-90.87,6.3-121.29-34.44-7.35-10.61-6.55-17.88-12.07-22.68-16.74-8.53-31.91-8.77-55.88-22.81-24.32-12.09-41.86-41-32.06-64.39,7.85-21.37,26.45-27.69,44.4-37.21,42.12-23,74.45-53.45,92.58-92.59,1.82-4.94,1.82-7.63.59-10.1-1.1-2.18-4.22-4.5-5.09-5.09-11.26-7.45-24.38-15.78-33-21.65-30.6-20.57-46.6-52.24-33.79-86.63,9-26,35.62-40.62,62.92-40.62a74.24,74.24,0,0,1,21.45,3.13c-2.68-73,12.86-133.92,51.75-174.27,39-46.37,104.7-70.78,169.54-70.78m0-28h0A282.27,282.27,0,0,0,297,25.78c-34.34,13.89-63.85,34.62-85.39,60-21.79,22.85-37.79,51.75-47.56,85.93-6.56,22.92-10.37,48.43-11.38,76.15a100.26,100.26,0,0,0-46.48,14.54c-17.28,10.65-29.8,26-36.24,44.42-16.29,44.17.72,89.84,44.45,119.27,5.25,3.58,11.82,7.85,18.78,12.37l2.62,1.7c-15.6,26.5-40.44,49.17-74,67.52-2.31,1.22-4.7,2.42-7.22,3.68-16.64,8.34-39.38,19.75-50,48-7.61,18.69-6,39.9,4.58,59.79a95.89,95.89,0,0,0,40.18,39.45c16.38,9.48,29.48,13.63,40.05,17,3.48,1.11,6.58,2.09,9.45,3.14a78.56,78.56,0,0,0,8.8,16.69l.28.42.3.4c12.16,16.28,27.38,26.89,46.55,32.45,15.17,4.4,30.18,4.88,44.7,5.35,15,.48,29.09.93,41.66,5.73,11.43,5.16,21.46,11,32.08,17.22,15.24,8.9,31,18.11,51,25.21,22.56,8,47.27,12,75.55,12.13h.36c28.32-.2,53.11-4.2,75.79-12.25,20.13-7.13,36-16.38,51.34-25.32,10.48-6.11,20.4-11.89,31.6-17,12.53-4.73,26.75-5.22,41.79-5.73,15.27-.52,31.05-1.06,46.84-6,20-6.25,35.42-18.13,47.26-36.3l.37-.57.35-.58A82.72,82.72,0,0,0,701,678.89c3.07-1.12,6.27-2.15,9.72-3.26,10.61-3.41,23.76-7.64,40-17a95.23,95.23,0,0,0,40.18-39.31c10.54-19.83,12.16-41.06,4.58-59.85-10.56-28.3-33.5-39.77-50.28-48.16-1.64-.82-3.3-1.65-4.94-2.49-30.48-16.19-54.16-36.26-70.39-59.69-1.6-2.76-3.35-5.46-5-8.08l-.37-.56c19.73-12.54,37-25.17,50.34-41.47,10.35-12.71,17.06-26.5,19.93-41,3.2-16.18,1.67-33.32-4.54-50.95-11.85-33.83-44.81-57.09-83.09-59.22-.31-8.34-.8-16.46-1.48-24.31v-.3c-4.3-44.32-16.17-80.72-36.28-111.29-18.25-27.72-43-50.68-77.88-72.25l-.13-.09-.13-.08C494.51,17.43,449.83,5.73,402,5.73Z" transform="translate(0.2 -5.73)"/><path class="cls-3" d="M401.79,714.25c-43.25,0-67.44-14.86-90.84-29.23-12.55-7.7-25.52-15.67-40.59-20.65-29-9.55-54-10.51-72.28-11.22-7.89-.3-17.57-.67-21-1.93a50.59,50.59,0,0,1-1-6c-1.16-8.67-2.92-21.76-15.93-30.16-9.36-6.05-19.38-8.71-30-11.54-11.09-2.95-23.6-6.27-38.7-14.29C140,565,177.54,532.71,203.15,493.39c22.77-35,26.58-61.54,26.61-61.81l.09-.68c1.1-8.21,2.75-20.62-10.85-33.3-6-5.61-21.47-15.74-41-28.41-6.79-4.39-12.65-8.19-15.7-10.32-17.31-12.07-15.06-18-13.71-21.58.44-1.15,1.76-4.65,9.74-4.71,10.14.35,23.77,5.75,34.74,10.08,7,2.78,13.1,5.18,18.27,6.36a29.87,29.87,0,0,0,7.22.93,20.74,20.74,0,0,0,15.72-6.64c2.84-3.15,6-8.77,5.17-17.69-1.85-27.61-4.35-65.34-.13-99.67,4.6-37.41,16.17-64.92,35.39-84.08l.31-.31.3-.34C304.57,108,350.34,89,400.86,89c75.25,0,158.77,44.41,164.31,141.92v.21l0,.21c3,34.65.55,72.27-.77,92.48l-.12,1.73c-.92,8.93,2.2,14.54,5,17.7a20.73,20.73,0,0,0,15.79,6.68,30.84,30.84,0,0,0,7-.85c5.33-1.07,11.61-3.61,18.86-6.53,11-4.42,24.64-9.93,34.62-9.93,6,0,8.12,1.8,9.73,5.14,1.32,3.59,2.65,9.52-13.9,21.11-3,2.1-8.84,5.87-15.58,10.24-18.59,12-33.46,21.8-40.1,27.57-5.31,3.67-12.57,11.93-11.87,29.48.9,22.58,14.46,52.85,36.28,81,18.07,23.3,50.3,56.13,102.06,82.1-15.21,8.12-27.78,11.46-38.93,14.42-10.53,2.8-20.48,5.45-29.79,11.41-13,8.43-14.8,21.52-16,30.19a55.31,55.31,0,0,1-1,6c-3.4,1.24-13.12,1.62-21,1.92-18.27.7-43.29,1.66-72.26,11.22-14.8,4.91-27.1,12.45-40.12,20.44C469.51,699.28,445.11,714.25,401.79,714.25Z" transform="translate(0.2 -5.73)"/><path class="cls-2" d="M400.86,103a177.81,177.81,0,0,1,54.72,8.49,151.2,151.2,0,0,1,47.2,24.71,124.51,124.51,0,0,1,33.42,39.63c8.78,16.55,13.82,35.35,15,55.88l0,.43,0,.42c2.93,33.58.51,70.5-.79,90.34l-.1,1.5c-1.42,14.57,4.69,23.87,8.5,28.16a34.58,34.58,0,0,0,26.25,11.37,44.81,44.81,0,0,0,10-1.17c6.53-1.34,13.31-4.08,21.11-7.22,3.5-1.41,7.71-3.11,12-4.64l-9.93,6.46c-19.67,12.74-33.57,21.87-41.09,28.24-7.94,5.7-18.21,17.67-17.27,41.12,1,25.76,15.32,58.2,39.21,89C614.84,536,640.74,563.14,680,587.29c-3.5,1-6.9,2-10.27,2.84-11.12,3-22.61,6-33.75,13.16l0,0,0,0c-15.7,10.14-19.88,25.44-21.53,35.4-3,.17-6.37.3-9.4.42-19.1.73-45.26,1.74-76.15,11.93-16.31,5.41-29.88,13.73-43,21.78-23,14.08-44.64,27.38-84,27.38S341,687.06,318.28,673.09c-13.23-8.12-26.91-16.52-43.54-22-30.84-10.17-57-11.17-76.13-11.91-3-.11-6.38-.24-9.37-.42-1.65-10-5.83-25.26-21.53-35.4-11.22-7.25-22.79-10.33-34-13.3-3.24-.86-6.5-1.73-9.86-2.72,38.33-23.35,68.86-52.27,91-86.29,24.48-37.59,28.59-66.37,28.76-67.57v-.09l.08-.62c1.2-9,3.7-27.79-15.21-45.41-6.89-6.4-21.47-16-42.92-29.89-3.55-2.3-7-4.53-9.84-6.41,4.23,1.51,8.45,3.18,12.15,4.64,7.49,3,14,5.54,20.16,6.95A43.47,43.47,0,0,0,218.54,364a34.56,34.56,0,0,0,26.12-11.27c6.62-7.35,9.7-17.33,8.72-28.18-1.9-28.5-4.24-63.89-.19-96.84,4.2-34.19,14.47-59,31.38-75.87l.64-.64.59-.67C312.42,120.3,354.35,103,400.86,103m0-28c-51.27,0-102.37,18.76-136.06,57-48.48,48.34-43.47,132.8-39.33,194.82.68,6.49-2.35,9.17-6.93,9.17a16.09,16.09,0,0,1-4-.55c-11.82-2.62-36.68-16.27-56.08-16.82-9.86,0-19.22,3.73-23,13.75-5.49,14.48,1.9,26.25,18.78,38,10.16,7.1,46.94,29.84,55.2,37.51,8.55,8,7.45,14.1,6.43,21.85C215,436.21,196.58,522.9,80.65,579c-6.8,3.28-18.35,10.23,2,21.48,32,17.62,53.29,15.72,69.81,26.4,14,9.06,5.78,28.58,15.94,35.6,12.5,8.7,49.64-.59,97.52,15.2,40.06,13.24,64.55,50.59,135.82,50.59s96.35-37.5,135.83-50.59c47.88-15.79,84.94-6.51,97.52-15.2,10.16-7,1.9-26.54,15.93-35.6,16.53-10.6,37.8-8.71,69.82-26.4,20.4-11.25,8.77-18.2,2.2-21.48C606.88,523,571.74,421,594.28,407.84c8.26-7.68,45-30.42,55.19-37.5,16.81-11.77,24.27-23.55,18.79-38-4.67-10.2-13-13.7-22.65-13.7-19.72,0-45.06,14.61-56.45,16.77a17.12,17.12,0,0,1-4,.54c-4.51,0-7.62-2.48-6.85-9.16,1.32-20.25,4.1-59.73.88-96.64C573.34,127.76,486.84,75,400.86,75Z" transform="translate(0.2 -5.73)"/></g></svg>