<!DOCTYPE svg PUBLIC "-//W3C//DTD SVG 1.1//EN" "http://www.w3.org/Graphics/SVG/1.1/DTD/svg11.dtd">
<!-- Uploaded to: SVG Repo, www.svgrepo.com, Transformed by: SVG Repo Mixer Tools -->
<svg version="1.1" id="Icons" xmlns="http://www.w3.org/2000/svg" xmlns:xlink="http://www.w3.org/1999/xlink" viewBox="0 0 32.00 32.00" xml:space="preserve" width="800px" height="800px" fill="#36496d">
<g id="SVGRepo_bgCarrier" stroke-width="0"/>
<g id="SVGRepo_tracerCarrier" stroke-linecap="round" stroke-linejoin="round"/>
<g id="SVGRepo_iconCarrier"> <style type="text/css"> .st0{fill:none;stroke:#36496d;stroke-width:1.6;stroke-linecap:round;stroke-linejoin:round;stroke-miterlimit:10;} </style> <path class="st0" d="M13,19.9v2.8c-4.9,0.9-8.6,3.8-9,7.4H28c-0.4-3.6-4.1-6.5-9-7.4V20"/> <path class="st0" d="M21.7,23.4c-0.8,1.3-3,2.2-5.7,2.2c-2.6,0-4.9-0.9-5.7-2.2"/> <path class="st0" d="M21.7,17H10.3C8.5,17,7,15.5,7,13.7V9.3C7,7.5,8.5,6,10.3,6h11.5C23.5,6,25,7.5,25,9.3v4.5 C25,15.5,23.5,17,21.7,17z"/> <line class="st0" x1="13" y1="10" x2="19" y2="10"/> <path class="st0" d="M21.5,17c-1.5,2.5-3.7,4-5.5,4c-1.8,0-4-1.5-5.5-4"/> <path class="st0" d="M9.4,6.1C10.6,3.5,12.7,2,16,2c3.3,0,5.4,1.5,6.6,4.1"/> </g>
</svg>